<mxfile modified="2024-01-28T05:42:15.578Z" host="Electron" agent="Mozilla/5.0 (Windows NT 10.0; Win64; x64) AppleWebKit/537.36 (KHTML, like Gecko) draw.io/22.1.21 Chrome/120.0.6099.109 Electron/28.1.0 Safari/537.36" etag="lnoWkov8UtwZX5Y6L7rr" version="22.1.21" type="device" pages="2">
  <diagram id="7gcUSTIZ7YSJ5vT40chW" name="Page-1">
    <mxGraphModel dx="1050" dy="669" grid="1" gridSize="10" guides="1" tooltips="1" connect="1" arrows="1" fold="1" page="1" pageScale="1" pageWidth="1169" pageHeight="827" math="0" shadow="0">
      <root>
        <mxCell id="0" />
        <mxCell id="1" parent="0" />
        <mxCell id="BOHjWphCFEA1bgXW9XDe-1" value="" style="image;aspect=fixed;html=1;points=[];align=center;fontSize=12;image=img/lib/azure2/analytics/Azure_Databricks.svg;" parent="1" vertex="1">
          <mxGeometry x="396" y="273" width="55.41" height="60" as="geometry" />
        </mxCell>
        <mxCell id="BOHjWphCFEA1bgXW9XDe-2" value="" style="image;aspect=fixed;html=1;points=[];align=center;fontSize=12;image=img/lib/azure2/databases/Data_Factory.svg;" parent="1" vertex="1">
          <mxGeometry x="178" y="401.25" width="68" height="68" as="geometry" />
        </mxCell>
        <mxCell id="BOHjWphCFEA1bgXW9XDe-4" value="" style="image;sketch=0;aspect=fixed;html=1;points=[];align=center;fontSize=12;image=img/lib/mscae/Data_Lake.svg;" parent="1" vertex="1">
          <mxGeometry x="346" y="402.36" width="50" height="65.79" as="geometry" />
        </mxCell>
        <mxCell id="BOHjWphCFEA1bgXW9XDe-9" value="" style="endArrow=classic;html=1;rounded=0;fillColor=#f0a30a;strokeColor=#0d0d0c;" parent="1" edge="1">
          <mxGeometry width="50" height="50" relative="1" as="geometry">
            <mxPoint x="120" y="440" as="sourcePoint" />
            <mxPoint x="170" y="440" as="targetPoint" />
          </mxGeometry>
        </mxCell>
        <mxCell id="BOHjWphCFEA1bgXW9XDe-10" value="" style="endArrow=classic;html=1;rounded=0;fillColor=#f0a30a;strokeColor=#0D0D0C;" parent="1" edge="1">
          <mxGeometry width="50" height="50" relative="1" as="geometry">
            <mxPoint x="257" y="439.75" as="sourcePoint" />
            <mxPoint x="337" y="439.75" as="targetPoint" />
            <Array as="points" />
          </mxGeometry>
        </mxCell>
        <mxCell id="BOHjWphCFEA1bgXW9XDe-11" value="" style="image;sketch=0;aspect=fixed;html=1;points=[];align=center;fontSize=12;image=img/lib/mscae/Data_Lake.svg;" parent="1" vertex="1">
          <mxGeometry x="456" y="402.35" width="50" height="65.79" as="geometry" />
        </mxCell>
        <mxCell id="BOHjWphCFEA1bgXW9XDe-12" value="" style="image;sketch=0;aspect=fixed;html=1;points=[];align=center;fontSize=12;image=img/lib/mscae/Data_Lake.svg;" parent="1" vertex="1">
          <mxGeometry x="556" y="401.25" width="50" height="65.79" as="geometry" />
        </mxCell>
        <mxCell id="BOHjWphCFEA1bgXW9XDe-14" value="" style="endArrow=classic;html=1;rounded=0;fillColor=#f0a30a;strokeColor=#000000;" parent="1" edge="1">
          <mxGeometry width="50" height="50" relative="1" as="geometry">
            <mxPoint x="622.71" y="438.76" as="sourcePoint" />
            <mxPoint x="736.71" y="439.01" as="targetPoint" />
            <Array as="points" />
          </mxGeometry>
        </mxCell>
        <mxCell id="BOHjWphCFEA1bgXW9XDe-17" value="" style="image;aspect=fixed;html=1;points=[];align=center;fontSize=12;image=img/lib/azure2/analytics/Azure_Databricks.svg;" parent="1" vertex="1">
          <mxGeometry x="506" y="273" width="55.41" height="60" as="geometry" />
        </mxCell>
        <mxCell id="BOHjWphCFEA1bgXW9XDe-18" value="" style="image;aspect=fixed;html=1;points=[];align=center;fontSize=12;image=img/lib/azure2/analytics/Azure_Databricks.svg;" parent="1" vertex="1">
          <mxGeometry x="650" y="350" width="55.41" height="60" as="geometry" />
        </mxCell>
        <mxCell id="BOHjWphCFEA1bgXW9XDe-19" value="" style="shape=image;aspect=fixed;image=data:image/svg+xml,PHN2ZyBpZD0iRWJlbmVfMSIgZGF0YS1uYW1lPSJFYmVuZSAxIiB4bWxucz0iaHR0cDovL3d3dy53My5vcmcvMjAwMC9zdmciIHhtbG5zOnhsaW5rPSJodHRwOi8vd3d3LnczLm9yZy8xOTk5L3hsaW5rIiB3aWR0aD0iNjAwIiBoZWlnaHQ9IjQwMCIgdmlld0JveD0iMCAwIDYwMCA0MDAiPjxpbWFnZSB3aWR0aD0iODAwIiBoZWlnaHQ9IjgwMCIgdHJhbnNmb3JtPSJ0cmFuc2xhdGUoMjA3IDgxKSBzY2FsZSgwLjI0KSIgeGxpbms6aHJlZj0iZGF0YTppbWFnZS9wbmc7YmFzZTY0LGlWQk9SdzBLR2dvQUFBQU5TVWhFVWdBQUF5QUFBQU1nQ0FZQUFBRGJjQVpvQUFBQUJHZEJUVUVBQUxHUEMveGhCUUFBQUNCalNGSk5BQUI2SmdBQWdJUUFBUG9BQUFDQTZBQUFkVEFBQU9wZ0FBQTZtQUFBRjNDY3VsRThBQUFBQm1KTFIwUUEvd0QvQVArZ3ZhZVRBQUJrWVVsRVFWUjQydTNkZWF5dDYxM1k5OSs3OWpuM25IUFBuYzQxeGdQR0JHemZpNE1UaGhnemhEYUIwTkNFUXVJa0NrTVlRMmlhaWlpcFVqVW9hZFdiMEJSSVFpc3FXcEttSXVDMk1aZ2l0VXFydGdncHFvcmFBRUlWQkJ0c1NoRmdHK1BaOS9yZU0rNzE5STh6N2JQUDNtdS9hNjMzZWQ5bitId3I2dGhucjNlOTYxblQ4MW52TklRa1NUcTE5Qy9pM0hzLzhzUWZHdFlIWHhDcjlPeVEwck1ScTgrTVNKY2o0bkpFWEpua2ZuYit4MUlHcW9oRkxId0hFNnhlbTgvMWkwUEVpeW5pa3hIeC9oamkzVU5LNzRtMCtwVnJhZmpaTjN6VFI1LzNTZE5YZ3lHUUpPbkJmdWNkVHp5OUdnNitQaUw5aVlqNDF5UGlpZG5uY3FtU3dRSVA4Tml2VytzWWZqRmkvVE5ESEx6OU03N3hvKy8wQ1FRZ2tpUjFVVW94Zk9CL3VQSnZyaU45WjBSOGRVUThzc2hjcnFPSktIaDBEWS9URnZ1TEtRMC9ldkh3a1gvNnltLzV2UmQ5TWdHSUpFbnR3ZU81V0wzL1RWZStPcTNUZnpRTThZV0x6ZVhzWnRVRk9zQmo5R0kvRWlsK0tDTDk0R2Y4aFU5OHpDY1ZnRWlTMUVUdi82a252eURXd3crbmlMZUFCM2hrWDhXTzBiSEhvajhXS2Y3T2E4OS8vSWVHUHgrSFByVUFSSktrS3Z1TmQxeDU4c0lxL3Y2UTBsK0tpQlY0Z0FkNEZML29uejg4akgvN3M3NzU0Ny9rRXd4QUpFbXFxdmYvMUpOZmtOYkRUMFRFNjhFRFBMS3VIbmhNdmFEckVmRTNQK012ZlB3SGZaSUJpQ1JKVmZUZWQxejVLOE9RL3ZPSXVBQWU0QUVlMWNEajJQOCt2T1A4aTVlKy9kVi8rZjB2K1ZRREVFbVNpdTE5UC9uazM0d1l2bS8yQ1JkNGdBZDQ1RmpRejU4ZkRyLzYxZC80d29kOXVnR0lKRWxsemJlZWk5WDdQK2VwZnh3UmYybTJDWmRyZUlCSEovQkl5eTdzWGF0YkIzLzgwNy8xSSsvelNWZFhLME1nU1dxNTk3M3BxZjlzYW55azArWktxWUxKYUpwbVBiTS8xTUxITXNXZGc4dHJlYjVMWHV6dUMvdjk2M09IUC8wNzczamlhWjkwQUNKSlVobjQrTW1uL3VNaHhWOERqMm5Sa1hLdkkzaUF4ellJdWJuNlh6L3d0bGRjOW9rSElKSWtMWXVQZHp6NWRSSHhISGlFclIxVHJHSUNqMVR1T3I3bCt1ckdqL2pVcXlmSGdFaVNtdXQzM3ZIRTYxZkQ2aGNqNG9sOTUwbmIvVU5oRTlIbEY3SHdIVXdEang2ZTYxa1duWGtzaHpUOGxkZCswOGYra1U5QUFKRWthZGJlK1k1NDVLbmhxWDhaRVo4UEh1Q3g4K3FCUjRYUGRicTJHbFpmOU9uZitMRmY5a2xZZG5iQmtpUTExWlhoeXQvWUZSOTJ0WEpnZWMrN1dVMjY2RVhHY2JpNFR1bS9TYytaM3dLSUpFa3o5YjYzUC8zcEtkTGYzbVdlQkI3Z0FSNU5QTmRmK051dmYvSTdmQm9DaUNSSnN6U2NTejhRRWFQT2hyTnhuZ1FlNEFFZTlUN1h3L0I5di9HT0swLzZSQVFRU1pLeTl2NGZmOWtiVTZRL3UvTThxWUpUd0lJSGVFeTUyTlR1Yy8zMCtWdnhYVDRWQVVTU3BMeHp0WVBEdjczcGU4M0ZBMTNEQXp5S1BwWHV0STgxcFgvdmcrOTQrV00rR1FGRWtxUXN2ZmVubm41TlJIeGRzL0FvMlFXdTRRRWVaWTdqeTE2NmZ1dmJmRG9DaUNSSmViN00xdW1iSStJY2VNejRNR3VDUnczUE5YaE12NDZyOUswK0hRRkVrcVFzclZQNlJ2QUFqeXJoVWZLaUt6MHU2dDUvVGZIbTMzN2JsVGY1aEFRUVNaSW03YjN2ZU9yemhpSGVCQjRPTEFlUHBnOHNQeE5ISjYzMitpRDllWitTQUNKSjBxUU5rZjROOEFBUHA5THREQjVqVnp2RkgvTXBDU0NTSkUwN0h4bml5OEVEUE1BRFBFN3BMYi8rM3ozOWhFOUtBSkVrYVpvNXlYT3hpaGkrekRVOHdLTVhlSFJ3RFkrcDRIRzNjK2RTZktsUFN3Q1JKR21TZnZPWnl5K1BGSTlYTVlFQ0QvQW9aYkY5d09OZXcrclFnZWlGZGM0UVNKSnE3Y0lqNTErZDFnVlBvSlpmeE1KM01ORXFWckNlT1hlejZ1bjVQbWtkOTEvdDRWbWZsZ0FpU2RJa3JXSjQxV0Zwc3lyd21HWVZPMFlIZUV5N3lpa0ZnQUNJSkVuVGRPdFdYQmxLMlprWVBNQ2pwRVduU3Q3RWFaYlZmcVZQU3dDUkpHbVNWcXYxeFJRRGVGUStHZTE5TjZ2dTRKSG1YZTBoMHVNaEFKRWthU0tCWEl6MVFqTXU4QUFQOENnYUhrY0lBaUFBSWtuU1JQT1pkYm9BSHVBQkh1QnhSby82dEFRUVNaSXExQTU0Z0FkNFZBYVB1dzBoQUpFa3FSZDBnQWQ0T0pWdVBjZkVDMEFrU2FwMkl1cU1WdUFCSHVBaEFKRWtDVHptR01iVXovTU5IdUFoQUpFa0NUekFZNUZ4ZFBIQXZwNXZBWWdrU2VBQkhuWER3OFVEd1FOQUpFa0NEL0RZc0hyZzBjOWt1WWJkcktBRFFDUkpBZy93QUEvd0FBOEJpQ1FKUE1BRFBNQURQQVFna2lTQkIzaVVObzdPYUFVZUFoQkprbWFabklBSGVJQUhlQWhBSkVuS09qbHhSaXZ3QUEvd0VJQklrZ1FlY3d5ajR6dTZob2RUNlFwQUpFa2Ewem9pQnZBQWp3SVc3Um9lNENFQWtTUUpQRGFzSG5qME0xbE9sYXcyZUFDSUpFbmdBUjdnQVI3UUlRQ1JKQWs4d0FNOHdFTUFJa2tTZUlCSFNlUG9qRmJnd1RrQUlra1NlSUFIZUlBSGVBQ0lKRW5RMGNLTUJqekFBendFSUpJa2dVZitNWEI4Ujlmd2NFWXI4QUFRU1pKbWFzL0xnSUFIZU5RMWV3VVA4QUFRU1pJYXpQRWQ0Rkg0T0lJSGVBQ0lKRW5nQVI3ZzBSODhVaVYzU1NzQUlra1NlSUFIZUlBSGRBQ0lKRW5nQVI3Z0FSN2dJUUNSSkFrOCtobEhwOUlGRC9BQUVFbVNvQU04d0FNOHdFTUFJa2xTRS9CSWZZOGxlSUFIZUFDSUpFbmdBUjdaeDlIRkE3MXZ3QU5BSkVrQ0QvQ29CeDR1SGdnZUFoQkprc0JqdytxQlJ6L3dzSnNWZUFoQUpFbndBUjdnQVI1aGE0Y0FSSktrWmswRUh1QUJIdUFoQUpFa0NUekNHYTNBQXp3RUlKSWtnUWQ0Z0FkNENFQWtTUko0Z0FkNGdJY0FSSktrUmVkNGp1L29HaDVPcFFzZUFoQkprc0NqSm5pNGhnZDRDRUFrU2RLR3VSTjQ5QU9QVk1scWc0Y0FSSklrOEFBUDhPZ2VIZUFoQUpFa0NUekFBenl5M3gxMENFQWtTUUtQeFJZTEh1RFI4VGdLUUNSSkFnL3dBQS93RUlCSWtnUWU0QUVlNEFFZUFDSkpVdXZ3cVBRVXNPQUJIdUFCSGdBaVNSSjRWRE9CY2cwUEUyYndFSUJJa2pUSHZBUTgrcG5rdVlZSGVKejRaNFFDSUpJa2dRZDQ5QWFQVk1sZGdvY0FSSklrOEFBUDhPZ2VIZUFCSUpJa2dRZDRnQWQ0bFBUQXdBTkFKRW1hWjM3aVZMcmdBUjdnSVFDUkpFbmdBUjdna1dzZG9RTkFKRWtTZUlBSGVJQ0hBRVNTcEJZbW9yM0R3Nmwwd1FNOEFFU1NKTlVFRHhjUEJBL3dFSUJJa2dRZTRCRXVIZ2dlNEFFZ2tpUUpQTUNqR25TQWh3QkVraVR3QUEvd3lINTNUcVVyQUpFa0NUd1dXeXg0Z0FkNENFQWtTUUlQOEFBUDhBQVBBWWdrU2VBQkh1Q3h3QU9ERGdHSUpFa3pUUEpjdzZPdjV4czhDb01IOHdDSUpFbmcwZWdFQ2p6QUF6d0VJSklrZ2NmYzR3Z2U0QUVlQWhCSmtzQ2pQM2k0aGdkNENFQWtTUUlQOEFDUGNFWXI4QUFRUXlCSkFnL3dBQS93cUFZZTBBRWdraVQxQWcrbjBnVVA4QUFQQVlna1NlQUJIdUNSK1lIWnpVb0FJa2tTZUlBSGVJQ0hBRVNTcEZsYkZ6N3ZjUTBQOEFBUDhCQ0FTSklFSHVFYUh1QUJIZ0lRU1pMQUF6eVdXaUh3QUE4QmlDUko0QUVlMEFFZUFoQkprc0FEUE1DajloYzJlQWhBSkVtcWFjNERIdUFCSHRBaEFKRWtDVHpBQXp3S1FnZDRDRUFrU2VBQkh1QUJIajNCZzM4QVJKSWs4TWo4Z0oxS0Z6ekFBendBUkpLa21pWWNMaDRJSHVBQkhnSVFTWkxBSTF3OEVEekFZNWRWb0JJQWtTU3A1OGx5cy9CSWxkd2RlSUNIQUVTU0pQQUFqNngzNTFTNjRDRUFrU1FKUE1BRFBNSTFQTUFEUUNSSkFnL3dBQS93cUFZZTBBRWdraVNCQjNpQXgvN3I2SXhXNEFFZ2tpU0JSL1oxZEVZcjhBQVA4QUFRU1pLZ0F6ekFBenpBUXdBaVNWTDlFMUh3QUE5bnRHcmd1UmFBU0pMZ0F6ektIMFB3QUEvd0FCQkprZ1FlMEFFZTRDRUFrU1FKUE1DalpuUXNDZy9YOEJDQVNKSUVIdUFCSHVBQkhRQWlTWkxBQXp3bVdVZG50QUlQQVlna1NlQUJIdUFCSGdJUVNaTHFoNGRUNllJSGVJQ0hBRVNTcE95eksvQUFEMmUwYXVDNUZvQklrZ1FlNVU5RXdRTTh3RU1BSWtrU2VFQUhlSUNIQUVTU0pQQUFqNXJSQVI3Z0lRQ1JKQWs4d0tOdGVMaDRZSE5qS1FDUkpBazh3S01zZE5RQ2o4WjJxeE9BU0pJRUh1QUJIdUFCSFFBaVNWS2I4SEFxWGZBQUQvQVFnRWlTQkI3Z0FSN2dBUjRBSWtsUzNlZ0FEL0FBRHdlV0MwQWtTZW9USHFtU3V3TVA4QUFQQVlna1NlQ1I5ZTZjU2hjOEdudmZjQXVBU0pJRUh1RFJManhjdzZPSXNZUU9BSkVrS1UrSEVUR0FCM2lBeDZqVjZPQWFIdUFCSUpJazlUVDNBNCtGSHBneldqbWpGWGdBaUNSSnM3UUdEL0FBRC9BUWdFaVMxRjNnQVI3Z0FSNENFRW1Td0FNOFdvS0hNMXFCQjRCSWtnUWQ0QUVlNEFFZUFoQkprdXFmaURhTER2QUFEL0FBRUVNZ1NSSjRsUFRBbkVxM2IzaEFCNEJJa2dRZTRBRWVTNitHYTNnSVFDUkpBZy93Mkg4ZG5kSEtHYTNBQTBBa1NRSVA4QUFQOEdnREhuUURJSklrZ1FkNGdBZDRnQWVBU0pKVVpZY1JzZHAxb2dFZU96Y000REg1S29BSGVBQ0lKRWtONWhvZTB6eW1kSHNkSDRBSWVJQUhlQWhBSkVsYVpuTFN5elU4MHJGMVBnb1M4QUFQOEJDQVNKTGFjMFdLSVEzbHdXUFk1VVlOVEVSVHVnMlBZU2g3UGNFRFBBUWdraVJWUFRsSnU5eDkyZ0VyQlkvajBTMGVSN2VNWk1lSWl3Y1dNWmFwMGZlMkFFU1NwS0xoc2N1TnhpeGpLSFFjeCt4bWxRMGp6bWdGSGdJUVNaTEFZOTVKM3JEUUE5djErSTY3R05rTEl1QlJ4SHZHYmxZQ0VFbFNuNjBqWXRVdVBHYUR5Y3luMGsxcEI0U0FCM2dJUUNSSjZxWGF6bW8xR2lZTFhzTmo5TllROEFBUEFZZ2tTZUJSNXlRcUhmdC9uRDMzei85Z1RvV0lNMXFCaHdCRWtxUWk1MWNUVDE3U1JEY2NTank5MVlZRDRJZVo0WEhTOHpnTTRBRWVBaEJKa25xQnpNUTNHZ3VqVWs1VG00N0JZNGt6YisxMGJBaDRnSWNBUkpLa251R3g5YUpHTEd1blNmbU8xL0E0ZnZPaHVNRUhqNm5YMGFsMEJTQ1NKSFVBanltUWNpSk05b1RIcHNVTml3Nyt6SzhCMS9BQUR3R0lKRW05d1dNcm1JdzhxOVEreDNmc3ZWVUVQSXFZMElPSEFFU1NwRjA3akVnSEJVNmc1anlPSVcxQXlSR1FUSGxnK2RaYlJjQ2pIM2hBaHdCRWtxUUZKbEZqYnovREZjSFh4MFF5OVVIZUd6RUNIdURSd050WkFDSkpVanN6bFYwdVpiN254UU5UeHRNRnA3dXI3bFM2NEZIUzhCRUlnRWlTMUQwOGRsbWZrZnM5YmJ1cjFlZ3JrbzljN3l3SHJZTUhlSUFIZ0VpU1ZFS0hFWEVROHg1WXZzVDFNY2I4YjJuWWI3YTExNWFSZFByL1BDdzRUT0FCSGdJUVNaS1dudzh0TU1rYk10N0p2UzBlYVZvcG5ibGxKRzMzVUlhbG5uL1g4QUFQQVlna1NiVk44bWE3NnpSK3NuN21ybFlUZ2VUb2xwRmgySDBjcDRhSWEzaUFCM2dBaUNSSjRESFJPcVk1WnF6RDlyZWY0bmlSZlNIaWpGYmVOK0FCSUpJa0xkWTZJazQ5OUdIQnljbm9DZnFlWjdUYWEydkNXQW1jZEx6SlJCQ1o0REFUOE9nTkhlQUJJSklrdFRiUm0yUVYwcmgxM1BlcTVXa0tsSngyMnFvMC9uSHVDcEV4Q0FFUDhJQU9BSkVrQ1R3bVdzZFRvYkxIR2EzMk9nMXVpcDMya2RvSElta1grNEFIZUFoQUpFbGFiS0t5MEFSbHE3bjJ0cnRhbmZMMzIwN3d0enJzSTQyUXdRd1FBUS93QUE4QWtTUkplMDZZejk3TmFOeHM2eVJzYlRQWlB4RWtJM2NYeXdtUk03ZmFnQWQ0Q0VBa1NkTDRTVjRhQ1k5ZERxWFkrUUtDYVV0YjdMQnZWMHFiMThldVZ1QUJIZ0FpU1ZKVnJWTWFob1h1ZXpoK3o3dGNQSERrUEhHcnMwVnRBa25hUEFrY3hqK0EwVGM0YVd1SWl3ZldnU1B3RUlCSWtsVFNCQ3FsMFJPb3UxaEpPODYyOW9GSk9uSmcrZGxuM2RvU1BWdWNTemZkMmVLeTc1WFZ3UU04QkNDU0pDM1hPaUt0dHIvWkpKdE4wdmcvU3lPUGxKLzhJUE1OWjkwYWk1Rmg3RXFNM05YcW9kMnk3R2JWUERyQVF3QWlTZXErdmM2Y05mYTJ3M1RydGZYQjNHbkVnZTliYmhYWkJTSnB3MzBQVmJ4UXdBTTZCQ0NTSkJVK0dUM3JWTG9Qd21MY05IejAyYS9TeWFzN2pGejIyQVBHenpxZGI5cjBSMGVHWnhqcWZxN0JBendFSUpLa3psckhETCtrSHorbyt5eDRiTFBvVXpaNWpJSEpBemROMCtCaFc0eHMzSk1xeFpsWEY5ejNTdXJnQVI0Q0VFbVMyaW1OKzUvSHdHUGIrZlZvbUtSVFFMSmhVcjhOUnJZNWFIMmZ5ZktZK3dJUDhCQ0FTSkswZU90Yk1hek81NW5rblQzNVRyc3NkaStnSEQvejFxWXRKV08yWnB4MWZNZW1MUlJweDhkUUZFTEFBendFSUpJa0xUdVRPbmtDdndzODlybEMrWW1UK3JRQkpMRVpKR2Z0NnJRTlJOS0d4ekFGUW1ZNU90MnBkUHVCQnh3QmlDUkpVN2JlZFlJeGJEODUyZllZanpUcUlQUVJjNmVSeDZBY0I4bEpHRGxyTjYxTnUyZWxUWkE1ZHR4OWl3ZVhnd2Q0Q0VBa1NSbzkwVDlaTHRPalk1UVNScXo3TU1Ub1kxQ0dVMUJ6RmtidTN2K1lZMFZPVys5Tlcwd2NXQTRlNENFQWtTUzFDWkFNZjV3eXoxbzNUczdUS1RBWmUxRDVobDIxaG1GNGVLdkhLVnMxTmg2c1BtS0x4K0pudUhKOHgzU3JCaDRDRUVtU2JuZHJIYkVhTThITkFJOTlKdFluQW1PYmkvTU5KNFBrT0JvZTNsVXFIVHM0ZlRpeXhlVCtNazdEeUpCT2Z6eW5ia21aZTJzSWVFeXphdEFoQUpFazZlSFdoekdzVi9QQ1k1Zkp6MWxiUE1aNDQ2emJES3VILzJRNHVxdlVjQUl1N2h6MWZmeC9mMmpyeGZFdEhodFFkZHJXa093SUFRL3dFSUJJa3BTN0c3ZGlXSzNTdlBBWWc0b3RKMUhiTHV2aDR6NkdpTU1IbDNYOGpGWDNOcG9jT2ROVUd1N0xZWFZrcWZlMmlxeFBYcit6SURMckxsbmdBUjRDRUVuYXRhdS85aldmR1lmbnZuUTlyTjg0RE1NekVmRk1wSGdpSWowVkVaY2o0cEc5dnFQU0hOOW1LZE1YYU1xMG1pbkRtcVJNRHl2VDdDTXQ4RHJZY0pPMDQzTFRlaDFwdlk3RG00ZHh1TDRWTjY5ZWk1dFhyOGFObDY3RzFlZGZpTU1iTng3WW9qRU1kN2FRM1BuZjFuZVd2UnFHaCtCeEtpcTJSTWhaL3dZZTRBRWVBQ0pKZWI5VC9zVWZQZmZTSzU3K3FvajFueGtpdmlLdDQvZkZrR0s0dTYvSXRxYzlYUlFldWZCUkV6eTJXRzZ6OE5oaGZmZUV4OTJHMVNxRzFTcFc1ODdGK2JnUUZ5OWZmdURmYjE2N0hpOTkvQlB4NGtjK0VpOTk0dmxJS2QzYktuSmtRMGlzaHlNUVNmSFFNU0pqdDRaazJ5WExxWFRCUXdBaVNkdDI3VjEvOWczck9QeDNyMFo4d3hEclYrejdyUU1lNE5FelBNWjIvdUtGZVBLVm54cFB2dkpUNDlhTkcvSDhoejRjbi9qZDM0dGIxNjdmM2hveVBJaUlkYVE3LzMxNEFCSlRiUTNaR2lIZ0FSNXFwc0VRU0pxckY5NzExamNkUlBvUEl1SWI0c1FmUU1BRFBNQmpsdGRzdWo4bUwzN3M0L0hoMzM1djNIanhwUmlHMjJjVk8zb2NTY1R0clNIM0pnNUhaZzRuQWVLMGljVnAyRGordngrc3Boc0c4QUNQdTR0ODVqcy9ZYzViVUxhQVNNcmV4My81cTY4OGN2N2NjNUhTZDBYRUNqekFBendXaHNlUjJmL2xwNi9FNWFldnhDYysrT0g0MEcvK1ZoemV1dlVBUWlMdWJ3MFpUdGd0YTV0ZHNrWnZDWEY4QjNpMC9mUUFpQ0dRbExPcjcvclQzNUVpdmo5U3ZBdzh3QU04Q29ISENUMzVxWjhTajExNUtqNzRtNzhWTDN6d1E3RmFEVEhFN1MwaWQ4N1dlKys0a1loaDFMRWhXeU1rUmZtN1d0bmFBUjRDRUVtRmZxLzgrcDk0NHVyTlIvNXhpdmo2ZmI4bTJvVEh4T3NMSHVDeEl6eU9kbkQrWEx6cW1kZkZZMDlmaVEvOHY3OFI2WEFkY1d4cnlQMGoxb2VIcmgyeU0wTFNmZ2VtZzBkRnMrL1UzZE1qQUpFMFI1LzhsYmQrN3RXYjZhY2k0blhnQVI3elRSZFNwcGRDRG5oa0hJTUpGdi80cHp3ZEZ5OC9HdS85MWZmRXpaZGVPbkZyeUNRSXNhc1ZlSUJIbDYwTWdhUXB1L3FyYi8wakI2djBmenlNai9IN1ZwejZsdy85dzU3N2EyeS9CbnZlN2NUcm0zWmI1cmhiakZ6dTFuZWY0em03OC9ONW12bDFjTXFmbjMyclRHTndWRDRUTFA3OHBZdnhHWC93OThmRko1Nkk5VHBGU2hIcmRCOFFLVzd2a3JWZXA0ZHdNZVkzZzd2WEdqbnJ0bk9ONERKM3N1ZXFGYnlPT2NjeFZmTFFCU0NTWnVqRmQ3NzFUNlcwL3Q5U3hKUGdrUmtlQ1R6QUl3ODhqaTVzZGU0Z1h2TUhubzFIcjF5SncxTVFFaEhqRVhKc0hWTmE5SjBFSHBYQ1F3QWlTUkVSY2ZXZGIvMktZVWcvRVRGY25Bd2VBUjdnQVI1THdPT0JpY0t3aWs5NzQrdmowYWVlZkFBaGFRUkM3Z0hqeUZnOWRJOXAzQnFCQjNnSVFDVHBYaS8rMnRlK09RM3BmNHlJQzVQQ0k0RUhlSURIVXZBNDJyQmF4YWQ5OWpOeDRmTGxlN3RqSFgwcTdsOVdKSjI1MkxUZ0t3Zzh3RU1BSXFrRmZMenJ6N3hxV0svKzU0ajArUFR3MkdhNjBpbzh0aCtEOXVBUjRISDB2VEFqUEI2WU1KeGJ4V3MrNTVrWXpwMS9BQ0hyWTd0VXBmV0RnL1RBbHBCVDN0VkgvMmJXclIzZzBRYzhLQVpBSkxWVFNzK3RJZzdmRnBGZWtRY2VHWDg5cmdZZWFlSzFxQkVlTTc4T2lvUkhXZ3dlUnp0My9wRjQ5Yk92ai9WNmVBZ2hkemZTM2Y3ZnRqOEhtTjJzam0zc0JJK21uMjhBa2FRZHUvWnIvODkvT0VSODVkanZBZkRJQTQ4QWo2endPSHQ4MjRmSDBVRzQvTlFUOGZTbnZ6b08xM2Vlb3ZYdGYxc2YyMGgxSENHblBhVkgxeWpySlZ4czdaaFFTZUFoQUpHMEJENSs5YTNQcEJSL2ErZnZBZkNZREI2VFRJN0I0MVI0SlBCNDZLWXZmKzJyNC96RlMzRjRtRzVEWlAwZzFPN3RUcFUyajk1NnR0azllSlE0amxsZTR1QUJJSkxhYlIzcGh5UGlBbmhVRG84QWo1UEdBancyMzNSWURmSEsxNzgyMWlsaW5kTDlNMktsKzZnNERTRVBiU2tCajY3Z01ia1RvQU5BSlBYUlMrLzhVMzh1VXZxSzh1QXhZanJUUER5MmVKQmIzWDFOOE5qaGlSNDE5NjhKSG50TTdVY2VyUFhZbFNmanNaZGRpWlFpRGcvVGd3ZWRQL1EwcDQyN1d2VXdHUVVQdTFrSlFDVHRQbDhjWW5oNDE2czJMeUpZSXp5bTN0MnFSbmhNZllCNWpmQklFOS9zNUg5OCtXZDgycjB0R3VzVHptVDF3UCtselJjclRBczhaUEFBRHdHSXBBcDY2VjFmK3pVUjhmbmdBUjdnMFM4ODduYnBzVWZqMFN0UDNkNzFhcDN1SFF0eUZDVVBQdjM5WENnQ1BNQkRBQ0pwb29aaCtQZkJBenpBbzI5NEhPM2xyMzNWN1FQUkkrSXdSYXlQSDVCK3hzdmkrTDJDQjNpQVIvdWRNd1NTeG5idFgvM3AxeDFHK3JKVHZ5UjJtMHJzOEcyMCt6OVBlS01SaTB1WjFpVFh3ZVU1bnE2RlhnZW4vSGxhWWd6RzNmbDhyOXMwN1RJZmUrcnhPTGh3SVE1dlhvK0RTSkhTRUVPS2lPSElTMkM0OTE4anBSVERNRHp3RWpueVgrZC9lcVorSm1xWUxLY0tGZ2tkVFdjTGlLVFJIYTdTdDl5ZlZoejVrckRGNDlqaWJQR3d4V1AwbmVjZmcxRTMyMjhsbjNybHA4UjZmZStTSUhldWlINzZFcmZhRmF1bXJSMGxUNXBkdzBNQUlxbkcwaEJmM3dZOEFqeW1Ib01xNFJINVg3UEZ3Mk8vbGJ5NzZLYys5ZWw3QjZIZnZVTDY4VVVmWDQyakNEbnhKV00zcTZJbjlLN2hvWDJ5QzVha1VWMTk1OWU4ZGgzeFROMjdXbVdBeDQ3TFhHNVhxNHlUN3JUQTYrQ1VQMDlMalVHV3hhZE1OMHVUcmRIRnk1ZmkvSVZIWW4zelJxeUgrNzl1anQ2OTZ1amYxckNyVmFlN1daWHkwbGI5MlFJaWFWU0hjZkFWOVcveG1Cb2ZOVzd4eUhDeHY1UXk3UUNlYTR0SHhnc2VsbkNGdFZGYlBOTEVhNVRpMFNjZnYzM1dxM1RzbEx6cC9wWFNOODQ1YmZGWTlHVXpacEV1SGlnQWtUUnJRNlEvQWg1eGZ3ZDM4QUFQOElnSEwwejRSS3pYOTYvNXNSN3pVazRwMGpxQlIrSHdLSGtkVldkMndaSTA5cHZqRCtUNzF0ejluelBjY01QaTdHcGxWNnRqeSt4c1Y2dE4vM0x4OHFVN3FJaEl3LzIvR283ZVpOaTg4RlRJNUxUM1hhMmMwVW9BSXFtVTN0QXZQTFpmYm52d2lJd0hsNE5IemZDNCt6OWRmUFRpN1lzUHJtOGZ5M0h2YkZoeDVEaVFZOC9mRUdVRkh1QWhBSkZVU1AvNzIvNzQ1WWg0QWp6QW8wOTRiTFVDamNMamhIODk5bDhQemgzRStYUG40L0R3NXIwOTlHSjRjSy9GWVRoWkhjZXZEUUllNEtHMmN3eUlwRE83ZFBIcW85TjhJOVZ5ak1kdXkyM3JHSS9JZEVyZDNZN3hHRGM1cnVWYUh1VWQ0N0Y1Zkk4dGQ4UGRIRnc0ZjIrcng3MkR6OU80Qy9XbG1mZS91bmRnZFMybmdIV01oeHJLRmhCSlozYno2cTFIOXZ0RzJtdldQdlVOejFoY2p1TThiUEhZZFl2SE9IaEV2dlV0NVp5aktkOFlqTjdkYXNUZERLdUQyMys2amtpUklxMkdNKzk3N3UwZVRxVnJpNGNBUkZJRnJSNjVjQjQ4d0dPMjUydjBGZy93S0FVZTl6NHJWcXQ3dTE2TnhjWmNDQUdQVHEvaEFVY0FJcW5TYm0zeldRRWVXKzlpQkI3Z1VUazg3Z0hrM01HOVBmZU83dUkwSEQ4cjFpbEhvYWMwUFVjYzM5SGhoRDdWdDhvQUlrbkh1cmxhajcyV2NZWXZycHJnc2NWeW00WEhEdXZiSER6MldHQ2w4RGpwSlhWME1ldDF4TUZxODdvTlVjeGJIVHpBUXdBaXFmcHZUL0FBRC9Cb0doNmI3dUhvRnBCTjJKZ0tJZUFCSHVBQklKTEFBenpBQXp5NmdNZnRCYVgxblFzUnBvZGZmam5QdEFzZWZjTURPZ0JFRW5pQUIzaUFSMmZ3T0dtWWp4L1M4UkJDSnJnaUlYaUFod0JFRW5pQUIzaUFSMi93T09PdmhoSC9XN1BvQUEvd0VJQkl5dkR0Vk1LWnJhcUVSNjZaQ1hpQXh5bi9rbVljZzNUc0pUbU1nMGt6OEhBTkQvQVFnRWdxNlpzUVBMSmR0VHNWOEVTUG52dG5QdjF2Q2FmVVRmbkdvRlI0cERNc3ZNdXhJT0RoR2g3Z0FTQ1N3S09NYjcwRUh1QUJIcVhBNDZ4YmJJVEhob3NYOWd3UFo3UUNEd0NSSlBBQUQvQUFqejF1TVJZaDRBRWU0QUVna2xUUUFlYmdBUjdnVVJvOE5ubGkwOFhOajU4RUsrMytOZ2NQOEJDQVNLSVY4QUFQOE9nS0htbjhJays2T09HREFnR1BudUFCSFFBaVNZWEJZL3ZsdGdlUHlIUm1xNXJnc2RVS05BcVBFLzYxUUhpa05PN2xlblRMeUREQjlVREFBendFSUpMQUF6ekFBenc2Z3NmWWwrdjZ5TmFQSVZVd2dRWVA4QkNBU0FLUDNkWUVQSGFGeDlhVDR4YmhjZVpOYTdxSVlNcTBpTTM3VDYwalluWDh0a2NPT2k5cTQ0ZHJlSUNIQUVRU2VJREh6TTlYY3hjUkJJKzg4RGpscFR6Yy84OGhiWVpHRVFoeERRL3dFSUJJQWcvd0FBL3dxQXNlUi85MUhSR3JGSkh1YmY1NCtHVS9sTERwQXp5eXJDTjRDRUFrN2R6Tlc5ZUdpQ2NxZ1VjdWZOUUVqeDNXRnp6QVkySjRITnpkSTJ2WURJOUZFZUw0RHZBUWdFaHFQUEFBait6dzJHT0J6Y0JqZ2dXbDNaYVo3cUpqeFA1VTRBRWV0VDdYQWhCSjRBRWU0QUVlQzhOajI3dFliSzhyOEFBUEFZZ2s4QUFQOEFDUHR1Rng5SXJvdG5pMEE0OVV3VG9LUUNTQkIzaUFCM2owQkk5VHJoT3lDU0UxVE9yQkF6d0VJSkxBQXp6QW94NTRURFllZGNCajdOdGc4cTBqNEFFZUFoQko0RkVlUEhMTlVtcUNSNjV2NzF5emxwcXVYbDRUUENiRXg5SC94ekR1N1RMWjJiQmNQQkE4QkNDU3dLTXJlRVRLOUlVSUh1QlJQangyV1owaE9vS0hpd2VDaHdCRTBsUmZBdUFCSHVBQkhyc3RjKyt6WWRuTktzczZPcU9WQUVRU2VJQUhlSUJIVy9Bb2NJc0hlSUNIQUVRU2VJQUhlSUJISS9DNEN3NWJQTUFEUEFRZ2tzWjNmZnR2aFBiZ0Vaa09NQWNQOEdnVUhsTWhCRHpLZnZ1Q2h3QkVVaDNmSCtCUkZ6eTJXb0ZHNFhIQ3YzWjVjSGthTmJsTlU3eGN3QU04QkNDU3RQOTNDSGpzQ28rdEo4ZmdNZUhpQzRUSHFZdFlEaDZUM1QxNGdJY0FSSkxBQXp3V24yMDBjL1h5UnVFeDFjc3RMZnF1QTQ4RzRjRTRBQ0lKUE1CanNyay9lSUJIUS9DSWFhK0U3aG9lZmNNRE9nQkVFbmhNK0UwQkh1QUJIczNCNDhqYmNCK0VPS01WZUlBSGdFanFFaDViZkFVMEM0OGQxcmM1ZU95eHdHYmdNY0dDS29OSGl2R0g2UnpkNHJIdjZYbkJ3Nmwwd1FOQUpIV0xEL0FBRC9Eb0ZSNmpkWExrVkx5MmVJQUhlQUNJSk9YOUNnQVA4QUNQTHVGeER4cDdYNGtRUElwZVhmQVFnRWdDRC9BQUQvQ1lEeDdwNGJmYk9pSU9qdjNySGdnQkQvQklMVC9YQUNKSjRBRWU0TkVGUFBaK1M1OHd0bmUyZXNRd3pWc1FQTUFEUEFCRUVuaUFCM2pVQ1kvSnhnTTg1cGpaZ1FkNGdBZUFTTkxFSC9nNUxuZGNFenh5ZlV2bW1zR1VkL1h5TnVBeHcrc0FQTUNqb25GTXJUL1hBaEJKamNBalVxWXZIdkFBRC9Db0VoN09hQVVlQWhCSjRBRWU0QUVlNEpGOTZlQlIzVGlDQjRCSUVuaUFCM2lBeDJ6d0dCWisyWUpIaGZDQURnQ1JCQjdnQVI3Z0FSN2dBUjdnSVFDUjFONDNXVXJMcit1aThOaHFCUnFGUjY3WlhFM3cyTERjRXVDeFlkVW11ZzVobGZCd1JpdndFSUJJQWcvd0tCQWVtMjlkSUR4T1hVUk5GeEZNV1ZjUFBNQURQQVFna3NBankwUUNQTUFEUEk3K2wxM2hjZXJiSGp6QVF3QWlTVTNEWS9UY3Z3TjRuSGxUOEFDUGgrR3h5NklHOEtnZUhzNW9KUUNSQkI3Z0FSN2dNUXM4ZGdWSFNoSERjQXdodFV4RXdRTThCQ0NTd0dPdjlXME9IbnNzRUR6QUl4TThOaUprMG9ORjVubUtuTkVLUEFRZ2txcnlESGlBUjg0WlhZNHpXOVVFanduWGQwZDRIQWZHQTFzNGhzb21vdUFCSGdJUVNlQUJIdUFCSG1YQzQ2UzNlYnFEanFPN1hJRkhSL0NBRGdHSUpQQUFEL0FBanl6d2FHVXk2dmdPOEJDQVNBSVA4QUNQWnVHeHhWMldDby9SeTYvb0dBL3dBQThCaUNUd0FJOFc0REhaZUlCSFZmQ0l3dkVCSHVBaEFKRUVIdlBBSTljM1pxN1pUSGtYRVd3REhqTzhEbnFGUitsYlBjQURQQVFna3FxV1I2WXZJZkFBRC9ESUI0K00rQ2o4NHdvOEpyaWJDazhrSUFDUkJCN2dBUjdnMFJJOEtwcUlnZ2Q0Q0VBa2dRZDRnQWQ0VkF1UGdtZDdUcVVMSGdJUVNlQUJIdUFCSHVBQkh1SDREdWdBRUVrNiswTytnQWtNZUlBSGVJREhFbTlUOEtoeUhOa0VRQ1RCUjZYdzJHb0ZHb1hIQ2YvYUhUdzJMTGVyWXp3S25kS0JCM2lBQjRCSTBwVHcySHB5REI0VExyNUFlSnk2aUpxdVhwNHlyZDVDOEZocXhnY2U0QUVlQUNKSjRKRmhYWnU1ZWpsNGdBZDRnQWQ0QUlna2xmYTEyTnpWeThFRFBNQURQQXE3Ry9BUWdFZ0NEL0FBRC9BQWp4bGZtdUFCSGdJUVNSM2pvemw0N0xIQVp1QXh3WUtxaDhlRTZ3c2U1VTQ2WGNNRFBBUWdrc0FEUE1BRFBNQURQQ3FhcmFjMkhvWUFSQko0Z0FkNGdFZU44Q2o5R0Evd21PM0JnUWVBU0JKNGdBZDQ5QUNQbmU5NmdtT2VCc2QzZ0FkNEFJZ2tnUWQ0dEF5UExlNFNQTUFEUE1CREFDS3BDWGprK3RvQmp4UC9wZGlybDROSGwvQUk4QUFQOEFBUVNacmlLNklFZUV5KytQS3VYdDRHUEdaNEhSUVBqd1hHWUdsNERBVlBQSjFLRnp3RUlKTHFNd3A0Z0FkNGdNZEROMDF4YjFlckFUekFRd0FpU2VBQkh1QUJIcE8vRjQ3QkkwckVCM2lBaHdCRUVuaUFCM2lBUitYd0dBcWZkTHA0WUYvd0lCOEFrUVFlNEFFZTRORWdQRTU0ZXhZMzczTmdlVC9vQUE4QWtRUWVNNjlBby9BNDRWKzdnOGVHNVhZRGp4SExUUXU4RHNBRFBNTFdEZ0dJcElrLzFNRURQTVl0b3FhTENLWk1xOWNmUEdxZE1JTUhlQWhBSkZYNS9kTUJQTTY4YVUwWEVRUVA4SmgyWFczeEFBL3dFSUJJcXZ5VEh6ekFBenlxZ2tlNisvOWJlRFlJSHVBaEFKRUVIdUFCSHVEUkF6ejZtSXc2b3hWNENFQWtnVWVlOVFVUDhBQVA4QUFQOEJDQVNHcngweDg4OHNCamdnVlZENDhKMTdkYWVFeTN2a1hCd3pVOHdFTUFJa25nQVI3Z0FSN2dBUjNnSVFDUkJCN2dBUjYxd21QbnV3WVA4QUFQQVlna2dRZDRuTDNjNGk0aUNCN2dBUjdRSVFDUkJCNHR3R095OFFBUDhBQVA4QUFQQVlna1ZRaVAvVmEwRFhqa21nbUFCM2lBQjNpQWh3QkUwbHpmS2lWY3l3TTh3R1BVWW1ZZWcrTGdzZkNNMEtsMHdVTUFJa25nQVI3Z0FSN2dBUjZ0d0lON0FFUVNlSUFIZUlCSGsvQW9heVlNSHVBQkhnQWlDVHpBQXp6QW8yZDRwSWdZQ3A1MDFqSmJUUlU4RFBBUWdFZ0NEL0FBajA3aGNlKy9nRWZWczFYWDhBQVBBSkhVTlQ2NmhjY0ovOW9kUERZc3R3UjRuRHp6bm4rYTB6dzhSbzRCZVBRQmoxVEZNQWxBSk5Yc2oxYmhzZm5XQmNMajFFWFVkUFZ5OEpoeVhlYzVwZTdJR1RGNGdFY0pkMDhtQUNKSmUzMGJOSFAxY3ZBQWowYmhNZE9FRHp6QUF6d0FSSkxBQXp6QUF6ektuZk9DQjNnSVFDU0JCM2lBQjNpQUIzaUFCM2dBaUNTVjhhMEZIdUFCSHVBQkh1QUJIZ0FpU2VBeDR6ZDM5ZkNZY0gycmhjZDA2OXNiUEJ6akFSN2dBU0NTQkI3Z0FSNjl3eVB6cE8vdW9vZGxoaG82d0VNQUlnazh3QU04RnA1MEYzUDFjdkFBajNiUkFSNEFJa25nMFNNOHRyaEw4QUNQcWNiQWJsYmdrVnA0cmdVZ2tzQmoxTDhVZS9WeThBQ1BmdUJoaTBlZjhMQzFRd0FpcVFCNDdQZHQwd1k4Y24zajFnU1BCY2FnT0hnc09BWXp3V09uQzZTREIzZ0lRQ1FKUE1BRFBNQmpHM1NBQjNpQWh3QkVFbmlBQjNpQVIzWjQ3THo2cFU5SXdRTThCQ0NTd0FNOHdBTTh5dGpWYXUvVkg2TGN3QU04QkNDU3dBTTh3QU04S29iSFR2dG1sZmNaNXhvZTRDRUFrZFEwUEU3NDErN2dzV0c1M2NBajE2d3dUYjltMmM1c1ZUazhxdjk4QXcvd0VJQklBZy93V0JZZUo4Kzh1NExIQTBzcTRaUzY0TkVtUEZ6RFF3QWlDVHltK2NhWjl5S0NLZE1pYXJwNk9YaUF4OHp3Y0h4SDFmQ3d0VU1BSXFtdWIyN3dBQS93NkFRZTZjSC9aK25IZVlBSGVBaEFKSUVIZUlBSGVGUUtqd1FlNE5IY1Y1VUFSQko0Z0FkNGdFZXg4S2hoc2djZTRDRUFrUVFlZWVBeHdZS3FoOGVFNjFzdFBLWmIzM3Joa1d0OVUxMFRQUEFBRHdHSXBOcTZIaEdQZ3dkNGdBZDROQVVQcDlJRkR3R0lwSVlDRC9EWSsva3E1aUtDQzhOajYxWG9IQjZ1NFFFZUFoQko0QUVlNEFFZTRBRWVVY2MxUE1CREFDS3BPWGhNOXNYUkFEeTJ1RXZ3QUEvd0FJK3NxOURROHkwQWtRUWVGY0FqNHlTdUduZ3NNQWJnQVI3Z3NmemRONzYxZzFjQVJCSjRnQWQ0RkFpUEJjZWdHSGhFUktwa3FnWWU0QUVlQUNJSlBNQURQTUFEUE1BRFBNQkRBQ0lKUE1BRFBNQmpGbmhrbmZTQkIzaEFCNEJJRW5pQUIzaFVESThKai9OSU9kY1ZQTUFEUEFCRWtzQURQTUFEUExMQ0k0V0xCNElIZUFDSUpHMzQyTzhPSGh1V1d3SThIbHBVVFZjdlQ1a2VmazFYTDY4SkhwbGV0MFBCazA3WDhBQVBBWWlrQmI4eFNvREhxWXVvNlNLQzRESGx1aFoxU3QzRzRQSGdXcVpaaHhNOFhNTURQQUJFRW9PQUIzaUFCM2hNczFCYlBQYTdlMmUwRW9CSWdnL3dBQS93QUEvd0FBL3dFSUJJcXYzYkhEekFBenpLaDBjNjQ5OFNlSUFIZUFoQUpKWCtqVjQ5UENaYzMycmhNZDM2MWd1UFhPdmJCandXbjNpQ3g2TGpDQjBBSWtuZ0FSN2dBUjc3UDd5UkI1Y1A0QUVlSFR6WEFoQko0QUVlNERIbEV3NGVXOGpDTlR6QUF6d0VJSkxBQXp3bWZFckJvMnQ0bkhFeld6ekFBendFSUpMQVk4dTdCQS93QUkvdC9taHhlTGlHQjNnSVFDU0J4K2FicDNuWEZUekFBenl5d0NNNmg0Y3pXb0dIQUVRU2VCUU9qd1hHb0RoNExEZ0d4Y0FqSWxLRzB4VXZzTVdqMW84bzhLZ0lIdEFCSUpMZ0F6ekFBeno2aFVmTkgwL2dBUjRDRUVsZG1BVTh3QU04d0FNOGFoOUh1MWtKUUNTQkIzaUFCM2lBQjNpQWh3QkVFbmlBQjNpQXg1SGxUdjRTQXcvd0FBOEJpQ1R3eUQrSjZ4b2VJNVpiQWp6dS9SZndBQS93QUEvd0VJQkl5dnBsVWRORkJGT20xZXNQSGc4c3FZUlQ2allHajczd1VlTU1PbFd5Q3VBQkhnSVFTZUFCSHVBQkh1Q1JkUlZjUEJBOEJDQ1N3QU04d0FNOHdDUDczVHVWTG5nSVFDU0JCM2lBQjNpVU1vdmU4VEtFNE5FUFBLQkRBQ0twdkc4UjhBQVA4S2dUSGp2Y0JYaUFod0JFa3RxQ3g0VHJXeTA4cGx2ZmV1R1JhMzNCQXp6cS9EaTJtNVVBUkZMbitBQVA4QUNQbmRjMUZmQytCUS93QUE4QmlLU3FNUU1lRXp5Y0J1R3g5U3FBUjFId3VQdjNBM2lBUjFWREp3Q1IxRFE4dHZpR0FBL3dBSThLNEpIQ0ZnL3dnQTRCaUNUd0FBL3dBSStaNExIUTFvNVJxK29hSG4zQmcwUUFSQko0Z0FkNGdFZUQ4S2hocnU2TVZ1QWhBSkVFSG1YQVk0WkpYUEh3V0hBTWlvRkhSS1FNcHl1dUNoNUhsZ3NlNEZISk9JSUhnRWdDRC9BQUQvQUFEL0FBajNsWEN6b0FSQko0Z0FkNGdBZDRnTWYwNitpTVZ1QUJJSklFSHVCUkl6d21QTTZqZW5oTWVoZjVab1BnQVI3Z0FTQ1N3QU04YW9ISHZmOENIdUFCSHVBQkhnSVFTUzNob3dSNHpQWnRsZVBxNVRYQlkrOG52RnA0N0lXUDV1Q1JiMzNCbzI5NE9MQWNRQ1JwRW5pYy9LZmdNZVc2Rm5WS1hmQUFqeDJYMnNSMVBNQURQQVFna3BiOThnSVA4QUFQOEJpenhLRkRkSUFIZUFDSUpJRUhlSUFIZU13TWo1b215MVhDd3pVOEJDQ1N3QU04d0FNOHdBTTh3QU02QUVTU0p2K3VBdy93QUEvd2VIQ0p3MWwvVlBxRUZEekFRd0NpSFQ0QVB2TGNFOWV2WHZ6WGhpRStKeUk5bXlLZUhWSzhhaGppc1JSeE9XNy8zdzRmRWxOK21rejl5YlRBdXFWT0h1ZW9XMDg5cVYzMmNhYjFyWWgwR0pFT0l4MWVpM1RyeFVpM1hvcDA4NFZZMzNwaDhtdHUxQXVQWE90YkNEd1d4VWVCOE5qbjdOeWpkRkluUEp4S0Z6d0VJTjEyL1FOLzcwMXg2K0FiWWhWLzdNYTE5T1poU0FkeDlQTisyR2RmekZMaHNjRGtIdFl5d3FPY01SdFc1KzU5ZkE3bkhvMjRjT1gra3ROaHBCc2ZqL1cxajhUNjJnY2pyVysyQVkrdFZ3RThlb2VITTFxQkIzZ0lRRG9zZmZDNXg2N2Z2UGp0UThTM3hXRjhRUXdqdjd3Ny8rVitwMlYxanJWa3pPN2paRGlJNGNMTFluWGhaUkZQdmlFT3IzMDQxaSs5UDliWFB3b2U0QUVleDI5cml3ZDRDRURVQ0R3KzlQMlBYNytaL3VLTm0vSGRROFFyL1hLL05EenNadFh2bUExeGNQSGxjWER4NWJHKytXSWN2dmpic2I3MmdiTXZxUUllNE5FeVBFcEdCM2hNdDByZ0lRRHBCQjdwdWRYTjkxMzhwdXMzMGc4TWtUNWwyZzh4dTFrWnN6M2dBYml4T244NVZrKzlNZGEzWGhPM1B2R2VTRGVlQncvd2FBWWVaeDRBTWxTQUQvQUFEd0dJdHV2R2UvLys1OTE0Ly9xZnhKRGVQT3J6M1c1VzJ5L0wxbzVNWTlZWGNGZm5Ib3RIWHZiNWNmalM3OGF0NS8rL1NPblc1QWV0MXd1UGlFZ1p6aHBXRlR5T0xMY0ZlSlNlaXdlQ2h3QkV1K0xqKzc0bERZZi9LQ0l1bVF4T3ZEeS8zTnZOS3N1eWhqaDQ5Tld4dXZCMDNQall1eUxkK0FSNGdFZGI4SEFxM1NiUjhkQnExWUlPT0FJUVRmaCsrc0EvdUh4amZmaWpLYVUvWnpJNDhiSWNWQTVyTXl4ck9MZ1lGNTcrdkxqNS9LL0g0VXZ2Qncvd3FCc2VOVXowd0tNZmVFQUhnQ2pEKytxM3Z2Zks5Y05iLzN5SStNTW1nM1BEdzI1V3NMYm44bzcreWJDSzgwOCtHOFBCcGJqMXdtK0FSNC93bVBRdUZvSkhvNU5SWjdRQ0R3R0k3dlRTZTcvL05UZUc5VThQRVc4MEdaeDRNdGdwMXV4bXRUeHd6ejMyMmhoVzUrTG1KOTZ6NWJwVkJvOEpEekFIRC9BQUQvQUFEd0RSSE8rdjkvNm5MN3N4ckg4Nmp1UERaRERUQkxwZHJQVzVtMVhad0QxNDlGVVJhUjAzbi85MThBQVA4QUFQOEFBUEFGRUI3N0gzUC9mbzlUVDhUL2UyZlBqbFBpTTg3R1psekpZQjdzSGxUNHUwdmg2M1B2bmJNNjVESGZEWUN4L053U1BQTER1QlI1Y1Q1aXJQYUFVZUFLSjV1aEVYZjJ5STlJZjlDcjNEOG95WmEzZFVCTnh6ajM5V3BGdFg0L0RhaDhBRFBNQURQTUFEUEFCRXkzVHRmZC83WGJFKzQyeFhyVXpnQ3BzTTFqeG1EaXF2Rjdqbm5ubzIxaDk2SWRMaE5mQUFEL0NZK09rREQvRFFzcTBNUWZuZGVOLzNmdjZRNGgrZS9jNU1FNzdMY3l4dnBtV05YdjEyeHl3OU5IRkxFOTFsNWErTnFaL1AwWGU1L2JvTnc3azRmK1Z6TWp6MFhCZHBTTGZQYkpXbWZqYTNYTi9aMy91bkxIZlN1OWh4WVJ0dWx1NzhmMVhPRXZjWTI5a3VVWktpeU91aFBMUkt0Vnl6QlQ0QVJETy83OUp6cTVUaWh5UGlRcE1UdUVvbWd6V01XZG9GSHJDMjI3Sm13dHJxL09OeDd2SnJ3QU04S29GSDVsbGlUZkFvZVE2Zm92eEovY1RyeUMvbFpSZXN3cnY1dm90L09TSjlVYjYza24zdXEzbWNvMjV0TjZ0c3kxdG96QTRlLzMxeGVPMURkM2JGMnZVdWNzRWp4ek9RTWoyMHpMLzJ0M0FSd1ZLbmRvN3ZtR2ExT3R6TkNqekt6UmFRa3QrSHYvVzlWMUtrdi9md1R3SlQvcnhRNEU4VmZybmY0ZFoyczhyMmZDNjhaVzBZRHVMYzQ1KzE0MTNrK0ptemtDMGVzY1R6Y3NJeVM5amlzZUdtdC8vbnpHT1E4M2VCdE95blJGbDN0dU5xZGJpYmxiMjJ5czhXa0lLN2NXNzRxNUhXVjhyOVBjQzFPK1plVnAvWDdsaGczUW9iczROTEw0L0RGeDZOOWEyWEZoci91L0RJOFdocnVwYUhMUjZuS3FlQTRiREZ3eFlQNktnblcwQktmVTkrNEI5Y1R1bndyMDc3VzRCOTdvdC9uS051N1ppWWJNc3Fkc3lHT0hqc3RUT3YxMUY0RkxURkl5MDBCclo0eElsYlBGTGV1NGlGWHZWbDNObU9xMldMaHdCRXUzYjk1bzIvT01Ud0tXMU9Ca2V1bTkyc1pqaW9QRFUzWnEwQzkrRFNLMkk0dUFBZTRBRWU0SEh5SnhKNENFQzBiOE13ZkZ0VkU3Z3BKNnJPWm5YQ1pNMllkUS9jWVlpRFM2K1k1K3NYUE1Bak56ejJlQ3VBaDFQcGdnZUFLRVBYZit2N1BpY2l2cUQ0Q2R6VXkrcjhsM3NIbFFQdVdSMDgrb29aNEpFbWZzUTF3U1BBNCtnWUZQWldjQTBQOEFDUGRuSVFlb2tkckw5eDV5K0tLYjkwNWxpVzA4RnVmeHBkQjVWbmZLMlYvVGlIYzQvRzZ2eWpzYjc1NHZUd21Qd1IxM1J3K1RGNGxQRDh6MzV3K1Nud21IclJ3L0tmUHN2ZjBSNnJWY3ZzT3pYL3RBaEFtdXdyVFFZYmVaeFRvUVBXZGx0ZWcxaGJYYmd5SFVEQUkvS2MyYXB5ZUV4NVYzZC9zZ2FQOXVIaGpGWUNrSHBMdi9GOVQ5Nkk5Ujh5R2F6NGNTNENqM2F4bGcrNGRUN080WkVyRWZGZThBQ1BKdUV4Ky9FZDRORUhQR2dHUUxTNTZ4Y092MnlJNGNCa3NKMEp0R3QzbFBaYXEzdk1WaGVldkRPclM3c3RQMDI5cHVBQkhpZU02N0RiclllWUlmQUFEd0dJSG14SXF6ZkZrT3VNSnExUEJrdUdCNndCN2pUTEdvWnpNUnhjaUhSNGJXRjQ3REFPemNGamo0V2xUZjlVMnhhUFZNUTdDVHpBQXp3QVJEc0w1UERaNlg0RHNwdFZXL0N3bTVVeHUvTXhjZTdSa1FBcDVPcmw0QUVlcDl5eTF5MGVxY1lKTTNnSVFOb3R4ZkRNVU5RNzBLL1F5NktqM1RFRDNEMStwemgzS2VJNmVJQUhlSUFIZUlBSGdHaUNob2hYdGdjUHUxa1pNOENkOUhOaTlRaDRnRWRWOExoN2EvQUFEL0FRZ0JRSmtPSHg3YjZVL0FxOXhMSmN1d053bDF6V3NEb0FEL0NvQWg1N25JVzNpWW1vYTNqMDlYd0xRS290UlhyTVpMRE15YURkckFDM21PZmczb255d0tNNGVHeTRLWGlBUncvb0FBOEJTSjFkTWhsMFVIbGI4SUMxeVpjM3JGekxveXA0ekRBR2hjR2p0Z2t6ZUJUOHRFQUhnR2lXQnBQQjB0QUJhOHUvMW1BdHgxMkNCM2hNdnBEY2swWHdBQThCaUdyNmhEQVozUDdXc0padGVjWXM0NWlCQjNpQUIzaUFod0JFSm9QRkk4WnVWb0JiOTVpQkIzaUF4MkxmMHVBQkhnSVE1WmpZMk0zS21BRXVlSUFIZUp5MWlCcE9ud1FlNENFQVVjSHdzSnNWZUFCdXVWaHJHUjVIbGdzZWZjS2pzQWtwZUlDSEFFVFpKemF1M2RIT21KVU1EN3RaNVh5dGdVZXQ4RGhodVQzQTQraGlacmxTSVhnczZnUHdFSUEwamc2VFFWczdBTGNycklGSFEvQ1k1SzRxZ2tlcDM2NHVIZ2dlQWhDWkRDNFBENy9jdzFwNTc4L3E0VEhwWFlBSGVIUUNEN3RaQ1VCVXhLZU1nOHBocmFqWEdxemxIalB3QUk4cTRWSFFibGJnQVI0Q0VKa01UbkJyV011MlBGZ3Jhc3gybmh5REIzaUFCM2lBaHdCRUpvT2x3Y012OTdCV3c1aWxESDllRXp6MldGamE5RTgxd1dPQ2hkalZDanpBUXdDaU05L0Zkck9DTmNDdEhCNHpmMU9EQjNnc0FRK24wZ1dQUnNkUkFNSWxMVTdnUnQzYUwvZkxUcUI3R2JQS3NRWWU0REUzUEFxYzdJRUhlUEFIZ0NqYkc5eHVWc1pzRG5qWU5RMDh3QU04S3YzNkJBL3dFSUNvOVVtMHJSMVZJQWJXMnNJYWVJREg0clB4NWZlOWNnMlBPbkFFSGdLUTZqNkliTzJvWWpKWS9RUWExcW9aTS9BWWRWUHd5UHM2V0hyUzU4Qnk4QUFQQUZIeG53SmxMY3R1VmkxUFZHRXQ2K05jREI4MXdXT0dNU2dlSHZuR0FEd2FoRWRsVzQ3QUEwQlUvS2VBM2F6YW1VRERXbHRZeTNFOUQvQUFEL0FBajhiZ0FSMEFvbG8rcWV4bTFkWnpBR3ZHRER6QW8wQjR6RFFqQkEvd0VJQ282RThyMSs2b0hXdjVKdEhHckMzZ2dnZDR0QTBQWjdRQ0QvQUFFSFgxcVdjM3EzWW0wTDJNV1UvQUJRL3dBQS93QUE4QmlGcjV4TE9iVlVQd01HWnRZaTNuNlU1emZQUFhCSThUbHRzZFBEYlFBenpBQXp3RUlPQlJKanBHTHM4djl4Mk9HYXlWTzNNQUQvQTQ0L0R5dWZIUkdUeWNTaGM4QUVUZ3NkT3RUUWFYblVEREdxenRlUitwZ1BVdUFSNlQzQlY0YlBNd2g2UC9wZlJacUd0NGdJY0FCRHFXV1pacmQ1UUVEMWlETmZBQWp6cmg4ZEIvR2NDamVYU0Fod0FFUExLaXcyUnd0K1hCR3F5QkIzaFVDWSswL1Y4NXZxTWZlS1M2VmxjQUFoM053c012OTdEV085Ym0vQm91N014VzRMRUlQUEtjMldvN2VBd1AvUmZ3NkFFZTBDRUE2UUlmRGlwdkN4Nndac3phaHNjWlUrTUM0VEhCUXFxSHg5azN2bnRJeDFEaGhCazh3RU1Bb2tYZzRaZjdiTXN6Wm9BTEh1RFJNRHppTkhqWTRnRWVFb0NBUjM1NCtPWGVtTTB4WnJBR0h1QlJFandlK0M4SlBNQkRBaERvT1BYV2ZyblBzankvM01QYUxNc0NqN3F1WHQ0ZVBHcWRNQmZ0QS9Eb1p4d0JSSDNCdzYvUXkwNmdZUTNXR29QSGhwdUNSeWZ3NkdpTEIzaUFod0FFUEthR2g4bGdSbmo0NVI3V2VvSkhycGxBVGZESU53WkZ3S1B0cjAvd0FBOEJDSFJrUllmSjRHN0xnelZZbTNYTWNzd0F3QU04d0dPUjBYRU5EL0FBRUlHSHlTQ3N3VnJ4WTVhaTA0c0lnZ2Q0Z01jUzR3Z2RBaER3Mk9LV2ZybGZGaDZ3Qmg1empSbDRnRWNCcitzU0pvTGdBUjRDRUMzeEhqUVp6TFk4V0RObTRBRWU0QUVlNEFFZUFoRHd5REd4OGNzOXJCbXpzb0diNW4xTTRBRWVaeTVxb1ZraGVJQ0hBRVJMdlAvOENyMzhaTkNZQVc3SldLc0pIaWNzdHp0NG5IRzY0bFRBYXhzOHdBTThCQ0E5d3NPdjBQVk9CaHRFREt3VmlyWEs0VEhKWFlFSGVDd3dyd1VQOEJDQWdJZkpZSmxqQm11d0JoN2dBUjVMdkZYQkF6d0VJSm9WSFNhRGJZMFpyTUVhZUlBSGVDdzZyNjFsc2d3ZUFoQ05lLytaRE5ZOUdZUTFXSnZyL1FrZTRBRWU0RkVwT21aYVFiWUJFSmtNTmo0WmhEVmpOdWU2cGNsdmxxcUN4d1FMbVJFZXhaL1p5akVlNE5FUU9zQURRRFQ3Tzhrdjk3QldHOWFNMlN5UEVUekFvMFI0cElnWXdBTTh3QU5BVk9FYjFpLzNzTlk3MW5vYXN6VFpRd0VQOEZnVUhxVlBPc0dqbW5HRURnRFJyTzhrdjBJdml6VmpCcmdGUDA3d0FJOHpGd1VlNEFFZUFoRDVGWHI3NVJtekRzY00xc0JqbjBXQXg2d25HVGorVDBOWjczN3dBQThCaUZxZndQVTRHYXh1ekdDdDZqR2IvY3hXTmNFajN4aUFCM2lBQjNnSVFNRERaQkQ4WUswdnJJRUhlSnk1cUpsZUIwZi9hU2p2RTZDNm1TeDRnQWVBcU41M3M4a2dyTUZhazFnREQvQW9EUjZsMzB0Rld6dkFvNHpMQkFsQXdNTmtFTlpnRGRiQUF6ekFvMmw0T0pVdWVBQ0lJTVprRU5hNnhsckpZd1llNEZFUVBGSk00dW9VVmJ6bHdLUEV1NEVPQUJGNDVKa01OdkE0WWMyWWdRZDR0QWFQRXQ4aDRBRWVBaERWOHNuZ1YyaGpCcmcxUE01ODhEaGh1ZDNCWXdNOXVvSEhQUGlZOEFSWjRGRWhQT3htQlNEcUdoNStoVFptZ0Z2VDQ1eHRxd2Q0VEhTWDRISGFUY0VEUE1BRFFBUWVKb1BWamhtc3dkckU5MVhDREFFOG1vVEhFQlcvVmNBRFBBUWcwR0V5MkRSaVlBM1d3QU04R29ISGhKY0VBUS93RUlDb1QzaVlETUlhcklFSGVJREhPSGgwaHc3d0FBOEJTTi9vTUJtRU5WaXp0U00zUENaWVNKcHpmSEtjMlFvOGp0N0FxWFQ3UmdkNENFQWd4bVFRMWpyRm1xMGQ0REVIUENaYzM2cTNlQ1R3QUk5aTNrb0NFRlg5Q2VPWGUxZ3JhTjJNMlk3TEFnL3dtQWNldFU2WXdRTThCQ0JxRGg1K3VZYzFZN2JNZXdBOHdLTmllSlErSVFXUGFlNENQQUJFdmFOajZpOHF2MEl2aXpWajFpWFdTb2JIaVl2b0ZCNFBMQW84cXBxTWdnZDRDRURBbzdUSllDc1RPR01HdU9BQkh1QXhPenlHS0Rmd0FBOEJDSGlVTm9rMkdWeDJ6R0N0YjZ6VkJJOWNNeER3QUEvd0FBOEJpRXdHdTUwTXdocXN6VFZtSit3b0R4NEZ3eVBmR0ZRRkQ5ZndBQThKUU1ERFpCRFdZSzJDNXlETnNUcmdBUjR6d01QV0R2Q1FBS1QxVHhlVFFWaUR0YWJIRER6QW93WjRsSXlPV3VEaDRvRUNFRFdCRjVOQldHc1dhOFlNUE1DakNIZzRsVzRmOEtqbzdHVUNFQlVORDcvY3c1b3hheGU0NE5FY1BIYTY2d3p3U0pYTTlNQURQQVFnYW1saTB4aGkvSElQdUUxaHJTWjRiS1RISG5kWkV6eW0vbndIRC9DWTZDN0FRd0FDSFczRHcyNVd4Z3pXaW5oczRBRWU0QUVlNENFQUFZOHlKallOVGNpTkdlQTJoelh3QUEvd0FBL3c0QklBVVRNVEc1UEJxaDRuckhXR05mQUFEL0FBRC9DQURnQ1J5V0RIazBGWWc3VzUxZ3M4d0tOamVLUktKcDdnQVI0Q2tHby9vVXdHWVEzV1lHM0taYzBJaitMUGJGVXRQRExnb3lKNE9LTVZlSUFIZ0dqeFR4ZVRRVmlETldNR0h1QUJIdURSQURyQUEwQlU4b2VZeVNDczlZNDFZd1llNExIL3FvSUhlTlF4anVBQklGcjBrOFV2OTdCbXpBQVhQUFpiRkhpQVJ4M3djRVlyOEFBUUxmd0o0MWZvZHJCbXpHQnRodVVsOEFBUDhBQVA4QkNBcU1jSm5NbGdCV01HYTAyTkdYaUF4Nnp3U0RIbDFqcndBQS93QUJBMThTbG5NdGdsL0dDdEthenQvblRtK0NxdkNSNzV4cUFlZUN3NEJ1QUJIaVBYRVRvQVJPQmhNZ2hyc0ZiQTQ5enY2UVFQOEFBUDhBQVBBWWhtK1FReEdZUTFXS3NkYStBQkhrM0RJOG8vREFVOHdFTUFJcFBCZGg0bnJCbXpLZTRSUE1Dak5uamMzZG94M1A3UG9WTjBsUFRXQVE4QmlFd0dXMytjc0xic3VyV3d0U1BTN1orTlp6bkFIRHpBQXp6QVk5cDFCQThCQ0hSVUFnKy8zQnV6ZG9HNy8xL2wrVG8vbFI3ZHdDTVhQaHFHUndLUGJIY0JIZ0lRdGZWcDZaZjdLcDREWTlZVTF0SWt5NW9aSG52ZEpYalVCWTh0bDNzYVBOSnRlQ1R3QUk4T25tc0JDSGhVUFJsczRIRWFNOEROQ285Y255N2dBUjdnQVI3Z0lRRFJVaE80UlNiUmZybGZkc3hnYlhsNExQTk5DUjdnTVFrOEh2UkhIMStuNEZIdTZvTUhnTWhrc09uSHVjZ0VCOVpxd0ZySld6dkFBenltaGtjM1g2ZmdBUjRDRVBBd0dZUTFXQ3Z0Y1pZT2p6eG50Z0tQb3pkSWs2NW1UZkFvYlBZSEh1QWhBRkd0NzBLLzNNTWFyQzNCa3pyZ01lRmpxaFllOTIvVUx6d0ttZ0dtU3U0R1BNQURRQVFlN1UwR1lRM1d5a0ZIam5WTFcvMDllSUFIZUJSd053NHNCdzhCQ0hqVU5CbHNBREd3MXRTWUxiTzFJMjM5OStCUjAwVUV3UU04d0FNNkFFVGRvR1BxTDJtLzNDK0xOV09XYTkxUzFQSWVxT25xNWVBQkh1Vk9ScDFLRnp3RUlDcDZNbGp5Sk5xWUFlNSt5d0lQOEFBUDhBQVA4QkNBZ0VjeGsyaTdXUm16ZHJGVzdHNVdEeDBDVWhNOGNzMHFhb0xIZ21NQUh1QUJIZ0lRRlRteDZXSFNhOHhnYmU5N0xHSE13QU04d0FNODlsOUhCNVlMUUdReTJOU1l3Vm90WTVhcWU2MmwwLzVuOEFBUDhBQVA4QkNBcU5CM3MxL3VZUTNXeXQ3TmFyYW5GVHpBbzVCWllKcG5WY0FEUEFRZ01oa3NIekd3MWhUV1VrdGpCaDdnMFJJOFNyNmJXaWJMNENFQVVYM3c4TXM5ckxXTHRkVGFtS1VDWGhjbHdHT251MjRVSG91OUI4R2o1SEhzSFI2SmVBQkVKb1B0d0FQV2FoaXorcmQyVExsdU5jRmo2cys0R3VHeDVYSVhoMGM2NFF4dHkwMUVuZEhLR2EzQUEwRFUvTVNtQWNRWXM2YkdyS25kck1BRFBHcUFSNHowUjRxSUFUekFBendBUkozQnd5LzN4cXhkNERhM214VjRnRWNsOEJpMUN1QUJIdUFoQUdrRUhuNjU3M0RNWUcyM2U0UTE4QUNQMmVGaGkwZldCK25BY3ZBQUVKa01OakdCaHJWYXhzeHVWdUFCSGdYRG8vVDVMbmowQXc4K0FSRE45VWIzeXoyc3RZczF1MWxsWEdhMThNaUFqK3Jna2ZHMXRjMlpuMTNEQXp6QVF3QUNIdTFOb0V1ZURNSmFybld6dGVPMDVZRUhlR1JHYmNyN3FwamxFYnFHQjNnSVFEVDFHOTB2OTdEV0x0WnM3ZGkwckRUeElqdUhSMFJFQWcvd0tPc0J1b1pIYXV2NUZvRFVqWTRHSnIyTHdBUFdhbml0T2FoOHBtL1ZCQjdnVVNZOG5OSEtHYTNBQTBCVXIxRGFSd3lzTlRWbWRyTUNEL0FBajZIQXR3eDRGQWdQNkFBUTFmaHA0SmQ3WTFZYlBBQVhQTUNqRG5paytWLzE0QUVlQWhEMUFJVUYxczNXam96d2NGQjVIL0RJUEpHdEFoNExqa0V4OExpelhQQUFEL0FRZ0tpT2lZM0pZQldJc1p0VlUxZ0REL0FBajdiZzRZeFc0Q0VBYVJRZmZybUh0UnJoQVd2Z0FSNHR3K1B1cllaQzN6cmdBUjRDRURVMWdlNXBNZ2hyMjk4anJFMnlMUEFBajBMaGtjQURQTUJEQUFJZUpvT3dsdk54Rmd1UFZvRUxIbVhCWTdIWFdubncyT3YrSGQ5UlBUeWNTbGNBQWgwVnc4TnVWbTNCdzVoTnRxeHFMeUlJSHIxczhkajU3a3FmakRxd0hEd0VJT0JSR1dMc1psVUoxaHhVWHNkckF6d1dIWU9tNFRIejdOQVdqMzdnQVIwQ0VQQW9hekxZd09Qc1pNd2NWRjRDWW1yWjNRbzh1b0JIMnZPdWhpZzM4QUFQQVFoMHREaUp0clZqMlRFYnR6d0hsZGYwdWdVUDhLZ0VIaFYvQllNSGVBaEF3S09rQ2JuSllGTmpaamNyOEFBUDhKajBJZTUxU3F4bDN4Yk9hQVVlQWhENE1Ca011MWt0RFE5WUE0K0hiNUFtWFUzd09BcVBhZTlsNWkwZTRBRWVFb0RBaThrZ3JPMStqN0JXSHpweXdlUCtqZnFGUjY3MXJRMGVHMDRURFI3Z0lRRUllSmdNd2xwYjhMQmxEVHdhZzhmRC8xRWZQR3p4cUJZZXpaMUtGNDRBUkQzQXcyU3dMWGpBV2hYQXJSa2VFUkVKUEpxQVIrVmZtK0FCSGdJUW1RekNXb1oxczdXakI4U0FCM2lBUjNYd2NQRkE4QUFRdGYxdXNwdFZqMWl6dGFNSHhJQUhlSUFIZUdTQUIzUUlRTUNqREhqNEZicUdNWE5RZVMvQXJRa2VtU2Z6NEFFZTRBRWVBaERWUHJFeEdheHh6T3htMVF0d3dhTXVlTnhaTG5nczh2WHBqRmJnSVFCUjluZVV5ZUN5WTFZeVBHQ3REWGprK0lrWFBNQURQTUNqdldrU3F3Q0lTbmhubWd3MmhUVzdXVFgydWsxTHJESjRnQWQ0Z0FkNENFQmtNbGpaWk5CdVZqVmdyUjNnSnZBbzhyMWJJRHhHM1F3OHdBTThCQ0F5R2F4a01sZ3lQR0N0SytDbTNkWU5QTUNqcGE4ODEvQndLbDN3QUJBdC9hNjBtMVZUV0xPMUEzRDdnOGVXeTIwU0hybG1ZUVU4WDYzQnd6VTh3RU1BMGkwNm1vQ0hYKzV6L1JYZ05vUzFGRHNkM3dBZTRBRWVIY0tqbHRrNWVBQ0lXb1dIWDZGcm1FUTdxQnh3cDE0LzhBQ1A3TS9Yakc5VDhIQjhod0JFUzc0ci9RcmQxSmpaelFwd3dRTTh3QU04d0FNOEFFVGdZVEpZQ0R6c1p0WFdheTN2eEJBOHdLTVZlRGlqRlhpQUI0Q29pamV1eWVEeWswRzdXYlVEM0pLeGxoa2YxY0VqMS9xbVRQUHVpby94bU9GNnVlQUJIdUFCSUtyaVRXc3lXTU9ZMmMycXNkZnRZcSsxQkI1endPUGgveWg0SmpiREtaQm5nb2RkcmNCREFLS2kzN1FtZzIzQkE5YXFlSzBWTTJZNWRyY0NEL0RJQkk4VW83WjRESjNDdzZsMHdRTkExQms4N0dhVmE5M3NaZ1c0T2RjTlBNQ2pHbmhza0VVUjhIQU5EL0FRZ0tqM3llREk1ZG5OcXFreEE5eUZ2cExCQXp4eXdpT0J4OTd3Y0EwUEFZamErSVQwSy9TeThEQm1nRnZBMXpGNGdFY3VlTVJtZUl6NFovQ29aWFplQ3pwSUIwRFUwUVJ1a1VtMHJSM0xUMm9BdDJ4NHpEU1JMUm9lZDViYk5UeU9MWGZTTXhpa2pmOENIdUFCSFFJUThEQVp6QW9Qdjl3RExuaUFSeS93T1AxL0JRL3dBQThCQ01TWURPNjRQQWVWTjRhWTFyZDJnQWQ0TEFTUFl1YUI0QUVlQWhEMWlvNzZKNE4ycytvUnVKVS9UdkFvQ3g2amJsWTNQQko0Z0FkNENFREF3MlJ3TG5qQVdsdXZ0UmF1VWJJd1BCWjdqWUxIa3ZCbzd1c3dCenJBQXp3RUlOQmhNcmpmUGNKYUZhL2JYc1lNUE1BRFBNQURQQVFnS3YrZFp6TFlGanpzWnRYbG1HV0R4NWJMYlJJZXVXWmtOY0hqNFlVVk0vOXo4VUR3RUlDb1Yzall6YXBIckFGdUlZaEo0QUVlNEZFa1BCcEZCM2dJUUtDaklYall6YXFHTVFQY21oQURIdUN4RUR4U0ZMRkJEanhtZm9sRGh3QUVQQmFmcU5yYTBkU1lBUzU0Z0FkNExQcFNCZy93RUlBSVltcWJERHFvSEhEYnhscC84SmoyWHNCanJ3UE13UU04d0VNQUFoMG1neTNCdzI1V3NKWnJlVFZkeTZNbWVHUWNneXgzVVRBOFNqK3JGWGlBaHdCRUpvTTVlZElEMXVwL3JjRmFrL0I0K0QvQW8yaDRwSExlS3VBQkhnSVE5UVlQdTFtMUJROVlxeDkrNEFFZUZjQmpLQlFkNEFFZUFoQ1pETFlGRDcvY0c3T2N5d0lQOENnVUhxN2hBUjRDRUVQUUd6enNadFVqMW9wOXJSbXpETzlQOEFBUDhOZ1pIclZNbHNGREFLTCs0R0UzcXhyR0RIQWJROHlVWjE4Q0QvQllBaDR6NzJiVkhEeHFRRWVCWThsQkFLSnFKemJMVGVDS2hZZGY3bUd0bURHckNSNTNsdHMxUEk0dHQzVjRKUERvQWg2cGlXRVRnS2ljeWVEOGt5NEhsVGVHR0ZnREQvQUFEL0FBajZWV2lVUUFSQVY4RXRqYWtSRWVmcm1IdGJuZW4ydndBSTlNVDNlZHA5TUZqNzdoa1dwOXJnRkVUYU9qQ1hqNDViNHRlTUJhOXRkYVFWY3ZUMHMvTjAxZHZieFFlQ3oyRFFnZTRBRWVBS0pLNGVHZzhyYmdBV3RWUEFlNXhndzh3S054ZURpVkxuaUFCNENveEU4cXUxazFoYldvZnN4NndkckNZOVlrUEhMTnptcUN4OE1MQXcvd0FBL3dBQkNWOHdsZ042dW1zRmIvSk5xWXpUSm00QUVlUmNBajN5elFOVHpBQXp3QVJOWEN3MjVXYmNIRG1GV0JtSnhqQmg3Z0FSNzFURVJkd3dNOEJDQk5mRkxaemFvU3JQbmxIdGFXK3JZSEQvQ1lHUjVwcWlXRFI4L29BQThBVVltZlZuYXpxbVF5NkpkN1dGdnEyejQvUEthOUYvREljeTJQbWJkNHBDbVdQUEtTNmVEUkR6eWdBMEJVdzRlWnJSM0xUd2I5Y2c5cjRORTBQQ2E5Ry9CNEVCNzFUWmpCQXp3RUlKMmlvMlI0K09XK0xYakFXcm12dFJ6ZjF1bWsveWg0aHBaeERLcUF4MHhqQUI3Z2tYTjF3QU5BVlBvSG1ZUEsyNElIck1IYUxzc0NEL0NvQ3g1T3BRc2U0Q0VBcWZMRHpHNVdOV0N0L2dsMEwxaXJlY3d5dmE3QkF6d3l3U1BGbVVkM2dBZDRDRUJVL2FmZExQRHd5MzFiazJoWWEydk13QU04bG9WSGdBZDRnSWNBcEdkMGpGdWUzYXdhUTR3eDZ4UzQ0QUVleThMai9oYVBQczlvQlI3Z0lRRHBIQjUyczJwckVtM01BSGVpKyswYUhzZVcyeVU4VGxudTNuZTFIbmVjaDYwZFRhSURQQVFnM2VQRGJsYnRUS0I3R1ROWUF3L3dxQmNlVzc3ZmhpZzM4SmhtbGFCREFBSXd1MzBtbUF5Mk00R0d0ZmF3Qmg1VncyUGpIemNLajlFSGc0QUhlQWhBMUFRNnB2NHJrMEZZZzdVbGw1WEcvMzBKOEJoMU0vQ3d4UU04YW9HSDNhd0VJT0F4MFdlV3lXQVZpSUUxV0FNUDhLZ0ZIclo0Z0VmRno3VUFSRHU4aSt4bTFSaGlZSzFEcktYZGJnTWU0QUVlNEFFZTRBRWdLZzhlSm9OdHdRUFdqRmtPZU9TYXFkVUVqNGNYMWg4OEdwckZnUWQ0Q0VBMDNidklibGFOSWNhWUFTNTRnQWQ0Z0FkNGdBZUFxTVIza04yc0dwdVFHelBBM2VxbUNUekFBenhxUmdkNGdBZUFxS1oza2Qyc0dwcVFHek5ZMi9IbTRBRWU0RkVwUEp4S0Z6d0VJTzE5cHZvVnVwMEpkQzlqQm12THJSVjQ1TG1JNEl6d21PVHVVbmx2RmZBQUQrZ0FFSUdIeWVDYzhMQ2JGYXlkdGJ3MC96b3RkaEhCbE9rdWFycDZPWGlBUitiVkFROEJpTWEvejB3R3EwQU1yTUZhTWNzQ0QvRElDWThaWjRqZ0FSNENFSUdIeVNDc3dScDRnQWQ0Z0FkNGxEaU9EQU1nTWhsc2Z6SUlhN0JXODdMQUF6ekFBenpBUXdBQ0hpYURzTllrWW96Wjd1L1BIQWVDZ3dkNDdEbUx6VExaQXcvd2dBNEFFWGo0NVI3V2pGbGp3QVVQOENnTkhxN2hBUjdnQVNCcUhCNStoYTRFYThZTTFscUJ4N0hsZGdtUFU1WUxIaEZENFpQT0drNmxDeDRDRUJYN2p2WXJ0REVEWFBBQUQvRFl1QmhiUEtxQ1IyY1hEd1FQQUZGejhEQVpYSDdDQm11d3R1a1BkN2dXQ0hpTS9HUHdBQS93S0hrY3dRTkFWTXU3Mm1Td3d6R0ROVmpiNXFiZ0FSN2dVZklzMXhtdHdBTkFWTTg3Mm1Td3pNa2dyTUhhWE85UDhBQVA4QUFQOEJDQXlHU3c0OGtnckJtenVjYXNLWGc4dkxEKzRESFJRcGFDeDkyRkRzdThPOEVEUEFRZ01oa3NaM0lQYTdEVzJwaUJCM2dzQ284VFRxMjhBenhtblhpQ1IxSGpDQjBBb3FiZ1lUSUlhOGFzYWVDQ0IzZzBBSStJcmMvQ0N4N2dRVFVBb2lZbk5pMGhCdGFNV1d0WUF3L3dLQWtlZTl3YVBNQURQQUJFMWIvaC9RcHR6QUMzZWF3dGZRMkxsUGY1MnY5bE9DTThKcm03K2VBeExSMHFtQmM2bFM1NENFQ1U2ODNrVjJoak5zZVl3Vm9aWTVhV25YUVhmUkZCOEZnTUhtY2N3QUVlcnVFQkhnS1FadDd3Sm9QdGpCbXN3ZG8reThyeDdWc1RQR1lhZzZMaGNmcHlzOE5qaEV2c1pnVWUwQ0VBcWZvTmJ6SUlhN0FHYStBQkh1WERvOVlKTTNpQWh3QkVKb093Qm11d0JoN2dVUWs4WnA4ZmdnZDRDRURVRXp4TUJtR3RkNnlWUEdiZ0FSN2dBUjd6amFQak93UWcwTkhwWkJEV2pCbmdnZ2Q0TEFHUHFyOGV3UU04QkNEeXkvMzJmd1pyNE5IN21PMTUvK0FCSHVBQkh1QWhBRkhYaURHQjduRE1BQmM4NWh5ckhCY1J6RFdyVytBaWdtbWZaYWEyM2k2N1AwWGdBUjRDRVBBd0dleDV6R0FOMWdxRXg4WS9Cby82NE5IK1JOUTFQTUJEQUtKV0p1Uit1WWMxV011OExQQUFqOHJnVWZxdVZ1QUJIUUlROERBWnJIL01ZQTNXd0FNOHdDTWlacnhhNFE2UEVEekFRd0FDSFNhRHNBWnJ4Z3c4d0tOeWVOVHdMUXNlNENFQUFRK1RRVmlETmZDWUN4NFBMNncvZUV5MGtLcmhrZUU1czhVRFBBUWdBZytUUVZpcjlqbm9mc3pBQXp6QUF6d0t0QUY0Q0VCNlJVZko4UERMUGF3WnM4bHVEeDdnVVRvODdpNFNQTUJEQWhDSW1XeDVmcmszWm9BNy83TEFBendtZnlnVHZ6NFRlSUNIQkNEZ3NjaGtzT1JKdERFRDNCb1JFNFZmUkhCR2VFeHlkL1BCWS85N3F3Z2VoYUJqeTZjSFBCcUVSNElqQUZGUDhQREwvYkpqQm10ZFlnMDh3R05wZUpUODdlakFjdkFRZ01oa3NQbkpvRi91WWEyQzUzT2FsMm1PYi9xYTRISDZjcnVBUituZmp1RFJEVG9pMlJzTVFOUVJQRXdHWVEzV3dBTTgrb1hIOGxNKzhBQVA4QUFRRmYzT054bUVOVmpyQXgzZ0FSN2dBUjdnSVFDUnlXQjdpSUcxU3JDV09ucC9nZ2Q0Z0VmclgrM2RuOUVLUEFCRXZjRERML2V3MWp2V1NoNHo4QUFQOEFBUDhCQ0FhTkYzdjEvdVljMlk5UUhjR3VGeHluSzdnc2NaU3lnQkhnOHNEanpBQXp3RUlKcGxZdU5YYUdNR3VPVmpEVHp5emZEQW8waDR1SVpIVi9Cd0tsMEFVUmZ3OEN1ME1RUGNPckNXOWx2ekpxNWVEaDdnMFNZNndBTThBRVIxZjlLWkRIWTRackRXTXRadVgrc3RnUWQ0TkFtUEJCNTluOUVLUEFCRWxYL0ttUXpPTWhtRU5WaWI0LzJacGxoejhBQ1B3dUVSRVRHQVI1L3djSHdIZ0tqaVR6bVRRVmlEdGFhd2xySStCZUFCSHVBQkh1QWhBSkhKSUt6QldxZFlTOU92WlJQd21HZ2hWY01qMTJ3WFBJcXlNSGdJUU5RV1BFd0dZYTEzck5XL3RRTTh3S044ZUtUUmZ6VlVPbUVHRC9BUWdQU0xENy9jdzVveGF3cTQ0QUVldmNEaklYeUFCM2dJUU5US2g2QmZvWTFaejJOV0Q5YkFZemw0N0g5dk5WMjl2RUI0MURCcEJnL3dFSUNBUndjVHVOa25nNzNBdzVpVmhMWHBmbkZQWmNCamtyc0RqNWJna1k3QjQ4U2JEZURST2p5Y1NsY0EwaXc2R3BqQUxUd1o3SDdNQUhjMnJFMitxOCtzK0tnSkhxY3Z0eDk0elB3Nk9PRmZIOWppY2VvbWtQYlFrZFVHcnVFaEFOSHlINFIrdVc4SEhuYXphaFZyYWRiSENSN2dzVEE4MGduL0FCNTl3TU51VmdLUTdtVmlNdGphNDRTMTZyQ1dabjJjNEFFZTRBRWU0RkgxT0FLSXdLTzl5U0Nzd2RwY1dFdXpQODZabmpQd0FJOHg4T2pzNnhROHdFTUFBaDBtZzdCbXpCWVpzMVRjNHdRUDhBQ1BYRStETTFxQmh3QUVQbnBBakYvdVlhM1FNV3NESHFlc1IxZndPR01KcVpEbk4rdnNIenpBQXp3RUlHcDJNamh5ZVhhek1tWUZBeGM4bHBqdGdjY1NwOVRkL2E1VGtTOXY4QUFQQVlpNmdvZGY3bzFaM2NCTk5UNU84QUFQOEFDUFhWZXhveXZVQzBCVS9jUW01eVRhTC9mTGpsbWZXRXROalJsNGdFZWo4S2pod0hMd0FBOEJDSGpVT1Jsc2Q4eEdMczl1VnJOZ0xUWDNXZ01QOEFDUHhSNkppd2VDaHdBRVBPcWJEQm96V0pzTGEyM3RaZ1VlNEFFZTRISDJPbFl4cHdjUEFCRjB6RFVaclBKeHdscVZXRXZOalZuS3RJbzV6bXhWRXp4eXpYeHJnc2ZDczBIdzZBY2UwQUVnQW84NUo0T3dCbXR6WUMwMU9XYmdBUjdnc2RnakFBL3dFSUNBUjEyVFFXTUdhM05oTFRVNVp1QUJIaVBoc2RQZGd3ZDQxQThQcmdFUVZmbE85c3Q5TzFoejdZNm1nUXNlRTkwQmVDd09qMVRXT3cwOHdFTUFvdW9tZ3hWTjRHQ3RtVEZyY3plckRUTzBJcTllbmpMZEczamt1M3A1QVZzOEJ2RFlheFdkMFFvOEFFUjl3OE51VnNac2Z1QzJ1N1hqbE9VVkNZL1RsOXNQUEhKTmd4cURoMnQ0Z0FkNEFJaDZSY2ZJNWZubHZzTXhxd2RyM2V4bU5kbmRnQWQ0WkZyWHRPRFFkemliQlEvd0FCQlY5aTcyeS8yeVl3WnIrNDVaKzd0WkZmb1pBaDdnY2VvaVJ6NW5RN252RU1kMzFER1cwQUVncXU0ZDdKZDdXS3NiYTkzdFpuWFNueXd4NFFRUDhBQVA4Rmg0SE1FRFFGVFZ1OWd2OTdCV045WlMwNisxbFBFdXdRTThGb1RIM1Q5eFlEbDRnSWNBQkR6Mm5ReTJEUTlZS3dscnRuWXN1SzdnQVI2bkxuYkVjK1pVdXVCUnl1THBCVUJVMENlQ1grNWhyZUF4Uzhhc0EzaWNzWVFTNExIZjdIL3Y5YTBPSGpYTWFjRURQQVFnV3VEdDZwZjdEckZtYTBkN1dFdDUxclhxcTVlREIzaUFCM2lBQjRDb1FuajQ1ZDZZelE5Y3UxbnRzeXp3QUEvd3FIMHk2bFM2NEFFZ2Fnc2Vmcm52Y016cXdacmRyUGFGeDN4WEx3Y1A4S2hxVHVzYUh1QWhBTkVDYjFYd01HYUZZczF1VnJIUWxqWHdBQS93S09WcnZQZHJlSUNIQUtRbGVQamx2cUxKb04yc1lBMDh3S05mZUF3eC8xc1FQQnBCQjNnQWlBcjVKUERMUGF3VmlqWFg3b2d5dG5aVUQ0K0p4NmhLZUdSYTN4bmhNY0hsUU1DalozaEFCNENvSm5qNDVSN1c1c2RhOTd0WmxiSzFBenpBWTNaNHBJZlFBUjdnQVI0Q2tFNXM0cGQ3V0ZzQ2F3NHFCdy93MlBBdlJWeTlmRDU0RFBNT05YaUFod0JFNEZIQTVCN1daaGt6QjVWSE9idFpiUUdQL2Rlb3BxdVh6dytQL2U2K1RualVQR0VHRC9BUWdHanhpWTFmb1kxWmJmQUFYUEFBRC9CWTZHdmFxWFRCUXdEU0R6b2FtTUF0TW9rMlp2dU9tZDJzU29mSDZYL2ZEenh5eldiQUF6ekFBendFSUlSaVdiWjJiTDg4dTFsVkF0eGRKdjNnQVI3TGpFRXY2QUFQOEJDQVFJZkpZUHVQYzJHczJjMnFsc2NKSHVCUkNEeFNBVy90VEYvQnZWODgwRFU4QkNEZ1lUSUlhMkUzcTdLd0JoN2dBUjQ3M2tXVzAyVjFCQTliT3dRZ011bnRlVEpZTjlic1poWFZIMGNFSHVCUkZUd0sveG9HRC9BUWdNaGtFTll5WWMzV2p2cFIyanc4OXB2OXR3V1BpRXdISWRqaUFSN2dJUUJSYzVQQmtjdXptOVVzV0xPMW93M2dsbmtSd1pyZ3NYbTVmY0JqeS9YZEZSN1pya3dJSHVBaEFCRjRaSjBNTnZBNEY4YWFnOG9CRnp6QUl5ODgwdjAvcmdBZXptalZFVHpnQ0VEVThzUW1CenpzWnJYdm1Obk5DbkRCQXp6eXcrUFlmd1VQOEFBUEFRaDRGRE81TnhtY1pjenNaZ1c0NEFFZXM4T2o5RzlQRTJid0VJQ29sVW0weWVDeVkxWXlQQUFYUE1BRFBKYi82blFOajQ0bTlZbEhBRVFOVDZCTkJrdkRtdDJzT25tY2k4Rmo0bldzRWg2WjFoYzgrb1ZIcW1UeDRDRUFBUStUUVZnckV4MzFZQTA4d0FNOHB2KzhMbWFpQng1OW5kRUtQQUJFcFgweW1ReTJpalc3V1FFdWVPd0FqNTN1SGp6QUF6eHFHa2Z3QUJBMThlbG1ONnRTc0pacWZaeUFtM0ZaTlYyOUhEeGFnMGN4a3ozdzZCNGUwQUVnYXVMVHpXNVdKV0hOMWc3QXpUZG1iY0pqdjdzSEQvQUFEL0FRZ0toU2VOak5hdDh4YzFBNTRJSUhlSURIak1NS0h1QWhBRkd0RXh1VHdYM0d6RUhsZ0pzWGEzUEFJOWYwb0NaNExETUc0QUVlNENFQVVlR2ZiSDZGTG1uTTdHYlZ5ZU1FRC9BQWo2MGZTKy9YOEFBUDhBQVE5UUVQazhHTWswRzdXUUh1Uk8vUE5YaUFSMm53U0pPZXhOSHhIWFdzSjNnSVFLRERaSENweWVBV2YyZzNxN0NiVmRiM0ozaUF4d0x3bUdvbzBxanp1NEZIQytnQUR3QXhCSzErdXBrTWxvUTF1MWwxOGpnWEdUUHdtSDBtbHNBakJ6d2lJZ2J3YUJzZXJ1RWhBT2tZTUNhRHMyRE50VHNBTnk5d1p4clBLcTllWGhNOHRseGY4QUNQaHVBQkhRQ2kxdEhSQkR6c1psWEZjd0M0QzJFTlBNQURQTUFEUEFRZ3Fnb2Vmb1Z1Q3g2T0kyb1Z1T0FCSHJYQ0l4V3ZEdkFBRHdHSUNwallWRENCV3hockRpb0gzT1d3Qmg3Z1VRODhVa1FNNEFFZUVvQTBpSTRtNEdGclJ4V0lBZHlGc2RiRzFjdkJvd040REdWdjhBQVA4QkNBcUlpSmpjbmdwait5bXhYZzFvRTE4QUNQaGVDUk1wNmh1Qko0dUlaSFlhdE9RUUFpazhFYUo0TjJzd3E3V1ZYei9td1ZIcG5XdHlwNG5QM0hpeDljSHE3aDBjMWtHVHdFSUIzaXcyUndsc21nM2F3NmVaeE5ZQTA4cW9QSGhPK3hFdUJSKzljcWVPeTNqdUFoQU9uK0E5UmtjTi9Kb04yc09ubWMxWTlaUmZEWTZlN0JveTU0RkRqckE0OSs0QUVkQUNMd1dCd3hkck9hRFd2R2JLbkh1YzM3WUpsSmQxSEhlVFFHajkxR0NUekFZNXAxdExWREFOSTlQT3htMVJZOGJPMW9GYml6UGs3d0FBL3dBQS93RUlDb2JIaTRkb2N4QTl3bXNKWnlQbmUxd1dPWk1TZ0xIbmR1QlI3Z0FSNENFSFU5Z1p0eWViWjJ6REptZ0ZzQjFzQURQTUFEUE1CREFLS3kzM1U5L0FydG9QSzI0QUZyNEFFZTRBRWU0Q0VBVVdYdk9sczd1b1NmM2F3NndCcDRnRWRoOENqa3NKdkZGZzhlNENFQUFROEhsY05hbzQ4VDFtWmZIL0FvRkI2VER3VjRORHRaQmc4QmlPcDU5OXJOcWxXc3RRdmNuckRXR1R3aU1wM1pDanpBbzlISnNtdDRDRUJVenp2WWJsWXRZNjNkMTFvdll6YlBldlVCankzWHQwbDQ3TGpBbkU5SFd1SVYzd2M4Yk8wUWdNaGtzQWw0K09YZW1OWDQ3UW9lNEpFTEhudHVTUm5BQXp3RUlPb0FIU1hESTAyOGhuNjVOMmJnQVI3Z1VTUThTdjYyQkkrcVB4cDVCMERVN0dSdzVQSnM3WmhsekFBMzdHWUZIdUJSQ3p4czhRQVA2QUFRZ1VjcGswRUhsWGZ5T0dFTlBNQ2pUM2lVL0cwSkh1QWhBSUdPU2llWERpcWZEV3VBQ3g3endDUFQ0NjRLSG1mL2NmWHd5SUdQbzM4K0xQcE1nd2Q0Q0VCa01sZ2lQUHh5RDJ2ZzBRMDhKbnovZ2NjcGY1N0NibGJnQVI0Q0VJZ3BaekpvTjZ0T0hpZXNsUUdQblI0S2VJQkh6ckVGajEzWEVUeElCVURVNkNlQTNheEt3bHE3OExDYkZYaUFSelB3eVB5MmNYeEgzK2dBRHdCUnMvQ3dtMVZKV0t2eWNScXpzdkFCSGxsZVQyblhkVzBaSHFWL3k0RkhQL0NBRGdCUmovQnc3WTYySnRIR3JNcFBCZkFBRC9BQUQvQVFnS2pNVHdDN1daVXladEg3bU8wQVhQQW9GUjY1eHJVbWVOeTVGWGlBQjNqa3YwdndBQkRWOEFsZ042dVN4aXlhSGJPZXNBWWU0QUVlNEFFZTRDRUFBWS9NazJoYk8vWVpzN2JoWVRlcnVUNFpkcHZ2Z3dkNDVId3ZwT1hlbGVBQkhnSVF0VDhaZEZCNUo0OFQxaHI1cUFDUHVxNWUzajQ4dW5wcmd3ZDRDRUFnWnIvSm9OMnNPbm1jc05halVyWllMSGlBeHduTDNlTGpZR2o5N2UwYUh1QWhBREhaMk85TDIyNVdZVGVyTHJFR0h2UEFZOHYxQlk5cTRiSDNSZEhCbytxUFNmQVFnUFE0MGJDYjFTeFlxL0p4Vm84MTMxTGdVU3M4ZGx3Z2VGVHoxbk1xWGFmU0ZZRFVOSU1ZSm51WDJzMXFGcXlGTVdzQWErQUJIdUN4RHp6U0NmQm8vaTBPSHJYQXd4Y0dnT2lNcmtiRW8zdTloK3htTlJ2V2pGbnRqeE04d0FNOHBvVEhKR3NESHVBeGZTLzV2Z0FRYmU2VER3UEVibGJabG1kclI0ZGoxZ284R3IxNk9YaFVDNDh1M3ViZ01jMWR6citPTC9qZUFCQ2QvU2I1MU9uaGtTWiszL2V3eTVDRHlzR2pGOCtBQjNpQUIzZzBDWSs3UGUrREhrQzB1ZCtOU0svTDhXVnRhMGNuanhQVzFDUTh6djdqNnVHeEdEN0FBenlhaGNlZGhnLzR3QytybFNFbzd0UHVQV2UraVVkOVFkMy93LzEzMXBoeWQ0OGN5MG9UM1dYbGozUEtkVXZidnRaS2ZKemFDSTlzMS9MSXRkVWpUZndxdkhPcnlWOXlPeTd3ekp2bGVHOGNXK1lwZHpIcFBkZnlOcDlqTEVyNm1zbDFsOFVNMlByZFB2akx5aGFROGo3ejNqM3M5U1U5MVk4TmZybXY1bkhPUG1ZbFAwNmRDWTlzMDVJY2YyNkxSMTFiUEVaY0JHTW8rZjFSd2FlVWEzanNHb0FBaURhMVN1bFgwakEwQWcrN1djRWFlSUJIbnZmbnpwTmo4TWd3NFc0VEhzNW8xYzQxUE5hcjRaMitDQUJFRzdxUUx2NmYxK0w2cmJPZkc5ZnVhQXNlc0Nid0FJK0c0SEgzbjhFRFBKYnYxaXJPL1YrK0VNcktNU0NGTlh6Mmo3d1FFYis0K1ozKzRMRWR1Ny8zRnppMllPcGw3WEJNVEpXUGM4cm5zL294MDdqaEx1UVlqNG1PdjlyK0ZlUVlqN0hIZUd4Lzd5bnEyRjlwdTlYdi9maU9yZSsya28vMUllTG52L2k1anpvTEZvQm94SnY2WjhiQW82cEo3NVRyVnYwQjBzWk11ZUdSZVNKYk5Ed0NQSTRyWUM1NFZQSCtBSSs5UDZrcmV4bWs0YVE1bFFCRUR6OHBCL0hQam44c1RET1Y4OHU5TWF2dGNRbzh0b1ZIQW8ranU1MkJCM2hNZFplVnZneFc2L1U3ZkVrQWlFWjA0UTMvL2J1R0lmM2lOTzkzdjl4WDhUaW5YcGJkck1BRFBQcUZSNEFIZUlESG5WWC9oYmQ4enljZGdBNGdHdHM2MG8vWjJ0SEI0NFExZ2NkKzhBandtUDVhSHVBQkhtMTh0QThSUCtZTEEwQzBSWmV1bnZ1UmlQaFE4WlBlcVpkbE42c09zYWJxWmtNbHdTUEZzcTlwOEhqdzVrdS9oTUVEUE83M2thdXJDd0FDSU5wSzdaLzczNzQ0RFBGZkZEdnBuZktUekc1V25XSk41Y3lJZW9iSGpqUG5wdUN4cHg2Vy9GZzQ0L0duVXQ1aTRMSEVUT29IdnZ5NUQzM1NaenlBYU11dW5YL2toeUxpbzBWTmVxZjh0TFdiVmFkWVV6bndTQlAvYVkzd1NCUGZwRVo0cE5tR2J5NTQxUFlXVyt4dTIvMTQvM0NzRHY1TG4vTUFvaDI2OHBrLyt2RTBwTCsxK0tSMzZtWFp6YXBEckFrOHdLTjllTXp3bVFFZTA4S2owWVpJMyszYUh3Q2lQWHIwRGMvK2s0ajRsMzY1citSeExqcG1KWjdwVE9BQkh1QUJIdUF4NjNqOHdsdFdML3hUbi9rQW9uMFVQenkzWHNmaHZ4TVIxOHFjUU52TnlwZ0pQTUFEUE1Camlic0VqNGU2bHRMaGR3elB4ZHBuUDRCb3p4NTc5aWQrS1VYOGpiSW01RlA4V2VYWEtLbCt6TUFEUEhaNUdUUU9qeGo3UHV3QUhnRWVwY0xEUi94cGozZjRhMS82UFMvK0s1Ly9BS0tKdXZ6czIvK3JpTmppYXA0TC9uSy95RzVXTWQvam5ITGRIRlN1cGFjb0UvMkUyZ3c4WnQvcVVUQTgwbHo0QWcvd21LUzNmL0gzZk9LLzloMEFJSnE0UzQvZStyYUkrTm5pSnZjT0t0OGRhOVUrVGpVQmp3bGVnK0RSRXp4UzNwY3VlSURIN3YzY3BaY3VmYWZ2QVFCUmhvWlAvOG1yMTg3ZCtyY2k0cGNYbjl3N3FMeFRyQWs4d0dNT2VFUlA4Q2o1VThzMVBHcm9uZXRWL01uUC9ZZS85Nkx2QXdCUnBwNSszVTkrSXVMV24wd1I3L0xMZlNXSXNadVZHb0pIQkhqTUFZOVpyMTVlQ0R5S3ZIaGd5WGZyWS80MlBnNXZmdFdYUHZmOFIzMG5BSWd5OStpelAvbSttOWVITDRzemQ4ZWE4T1BPYmxZZFlrMTlPU1hIbWEzQUF6ek8xcXRUNlRxajFZNzkzTGxWK3FOZit2ZXV2czlRQUlobTZxay8rTTgrZHVueEY3OHF0am93ZmN0UE1MdFpWWUkxUDRPcE5IZ0VlQnlmYmR2aUFSN2dNV1Z2WDcvdy9KZS8rYmtYUG13bzZ1eWNJYWkzNGRYLy9LV0krTHFyNy82Ni95V2w0WWRqaUVkSGZ4bE84R2ZUZmhKV3ZxenF4MHhOd1dPaVAweTdya0JhN0VGdGViT1UvMGxJVTkxN3lqU0VtYmQycElnWUN2N2tTaFhjcFkvNm8xMkxpTy8rNHIvNy9BOGFpcnF6QmFTQkxqMzdFMjlieC9BbEVmRnptNzhGUm41WmpQcWpYbmF6YW4zTTFCUThGdC9pa1d6eEdJRVBXenhxZXI4c2VKYys2by8zZjYvVDRWdmdBMEJVVUk5OTl0dC8rZEl6UC80bFE2UnZqWWdQamY3MHFuNDNLd2VWQ3p5S3VYbzVlRXc0QWEvMEdJOE5xd01lNExGakg0dUl2LzVGcStlL3pFVUdBVVFGTmd5UkxqMzdFMis3bEY1NlhhVDAxeVBpQS90OXdEbW9QTmRFenplUm1vSkhpbVZmNytCUkpEeHM4UUNQUGZ0d2l2ZzdGMWFyei9yaXYvdjhEdzdQeGRxUU5EUm5OUVFOejA5KzZac3ZYNzE0NDlzajRsc2o0czF0SEtkUTZ2RWRKVDlPdGRiTkZ6NFNWMy8zM1h1L2h0SStyODFVd091OWhHTThOdHhOODhkNG5OQzdmdVV3UHZxaEZBZXJ1UE4vUXh3TUVjTVFzVnJkbm5RTXc1SEp4L0RnWkdRWUlpNWZHQlo5V2MxK3R6N3Vqdy9ITHd3UlAzYnBwVXMvNnRvZUFLTEt1LzZlcjN2anJYWDZoaUZXWHhtUnZqQk9QQUZCRHdlVmoxeWVnOHBWTFVCcWdzZU9DMndLSG51dWJ5SHdLQW9nTmNERHgvM1JiZzBSUDUrRytKbDB1UDd4TC9sUFB2bXJoZ1JBMU9LdkM3LzJ0WSsvTkZ6NnNpSEZtNFpJejZRVXo4UXFYaDBwSG91NDkzK053Y1Back5RNlFNQURQSmIvUEZrVUlPQlJjcCs4LzMvRCt5UFc3NDRVNzFrZkRMOXlQUzc4N0pjLzk2RlArbVR2cS84ZllNRTNBYlhSQjh3QUFBQWxkRVZZZEdSaGRHVTZZM0psWVhSbEFESXdNakF0TURrdE1qTlVNak02TXpRNk1qY3JNREE2TURCa0JJanhBQUFBSlhSRldIUmtZWFJsT20xdlpHbG1lUUF5TURJd0xUQTVMVEl6VkRJek9qTTBPakkzS3pBd09qQXdGVmt3VFFBQUFBQkpSVTVFcmtKZ2dnPT0iLz48cGF0aCBkPSJNMjE1LjgzLDI5Mi44N2ExMy4yOSwxMy4yOSwwLDAsMS0uOTQsNS4xMywxMC44OCwxMC44OCwwLDAsMS0yLjY4LDMuOSwxMi4xMSwxMi4xMSwwLDAsMS00LjI4LDIuNDksMTguNjIsMTguNjIsMCwwLDEtNi4wNS44OGgtNC4zdjEzLjY1YS43NC43NCwwLDAsMS0uMTMuNDEuOTEuOTEsMCwwLDEtLjQxLjI4LDUuMTEsNS4xMSwwLDAsMS0uNzcuMTcsOCw4LDAsMCwxLTEuMjEuMDgsOC4xOSw4LjE5LDAsMCwxLTEuMjItLjA4LDUuNDEsNS40MSwwLDAsMS0uNzctLjE3LjY5LjY5LDAsMCwxLS41My0uNjl2LTM1YTIsMiwwLDAsMSwuNjEtMS42NywyLjE1LDIuMTUsMCwwLDEsMS4zOC0uNWg4LjEyYy44MiwwLDEuNiwwLDIuMzUuMWEyMywyMywwLDAsMSwyLjY3LjQ0LDExLjM0LDExLjM0LDAsMCwxLDMuMTQsMS4yNiwxMC4xNSwxMC4xNSwwLDAsMSwyLjcxLDIuMjcsOS44Myw5LjgzLDAsMCwxLDEuNzEsMy4xMkExMi4xNSwxMi4xNSwwLDAsMSwyMTUuODMsMjkyLjg3Wm0tNS4zLjQxYTcuNzksNy43OSwwLDAsMC0uODctMy44Niw2LDYsMCwwLDAtMi4xNC0yLjMyLDcuMTksNy4xOSwwLDAsMC0yLjYzLTEsMTguNzIsMTguNzIsMCwwLDAtMi42NS0uMmgtNC42NnYxNS4yaDQuNTRhMTAuNTYsMTAuNTYsMCwwLDAsMy43OS0uNTgsNy4wOCw3LjA4LDAsMCwwLDIuNTQtMS42Myw2Ljc4LDYuNzgsMCwwLDAsMS41NS0yLjQ5QTkuMTMsOS4xMywwLDAsMCwyMTAuNTMsMjkzLjI4WiIvPjxwYXRoIGQ9Ik0yNDYuMywzMDUuNDdhMTkuNTgsMTkuNTgsMCwwLDEtLjg1LDUuOTMsMTMuMiwxMy4yLDAsMCwxLTIuNTMsNC42OCwxMS42MSwxMS42MSwwLDAsMS00LjIyLDMuMDYsMTQuNzIsMTQuNzIsMCwwLDEtNS44OCwxLjEsMTUuMjksMTUuMjksMCwwLDEtNS42Ny0xLDEwLjQ3LDEwLjQ3LDAsMCwxLTQtMi44MSwxMiwxMiwwLDAsMS0yLjQtNC40OSwyMSwyMSwwLDAsMS0uNzktNiwxOS45LDE5LjksMCwwLDEsLjg0LTUuOTMsMTIuNzMsMTIuNzMsMCwwLDEsMi41Mi00LjY4LDExLjI2LDExLjI2LDAsMCwxLDQuMi0zLDE0LjY3LDE0LjY3LDAsMCwxLDUuODktMS4wOSwxNS4wOSwxNS4wOSwwLDAsMSw1LjY3LDEsMTAuMzcsMTAuMzcsMCwwLDEsNCwyLjgxLDEyLjA3LDEyLjA3LDAsMCwxLDIuNDEsNC40OEEyMC4yNCwyMC4yNCwwLDAsMSwyNDYuMywzMDUuNDdabS01LC4zMmExOS40MiwxOS40MiwwLDAsMC0uNC00LDkuODYsOS44NiwwLDAsMC0xLjMyLTMuMzQsNi40Nyw2LjQ3LDAsMCwwLTIuNDgtMi4yNyw4LjE2LDguMTYsMCwwLDAtMy45LS44NCw4LjI5LDguMjksMCwwLDAtMy43MS43Nyw2LjY3LDYuNjcsMCwwLDAtMi41NiwyLjE1LDkuNiw5LjYsMCwwLDAtMS40OSwzLjMsMTYuNDgsMTYuNDgsMCwwLDAtLjQ5LDQuMTYsMTkuNTgsMTkuNTgsMCwwLDAsLjQsNC4wNyw5LjYsOS42LDAsMCwwLDEuMzMsMy4zMiw2LjY2LDYuNjYsMCwwLDAsMi41LDIuMjYsOC4xNiw4LjE2LDAsMCwwLDMuOS44Myw4LjM3LDguMzcsMCwwLDAsMy43LS43Niw2Ljg2LDYuODYsMCwwLDAsMi41Ny0yLjE0LDkuMzEsOS4zMSwwLDAsMCwxLjQ4LTMuMjhBMTcuNjIsMTcuNjIsMCwwLDAsMjQxLjI5LDMwNS43OVoiLz48cGF0aCBkPSJNMjkwLjA3LDI5Mi41MmEyLjU4LDIuNTgsMCwwLDEtLjA2LjUsNi4zMyw2LjMzLDAsMCwxLS4yMS43M0wyODIsMzE4LjhhMS4yMiwxLjIyLDAsMCwxLS4yOC41MywxLjMyLDEuMzIsMCwwLDEtLjUyLjMyLDMuODUsMy44NSwwLDAsMS0uOTMuMTZjLS4zOSwwLS44OC4wNS0xLjQ2LjA1cy0xLjEyLDAtMS41My0uMDZhNC44LDQuOCwwLDAsMS0xLS4xOCwxLjE4LDEuMTgsMCwwLDEtLjU0LS4zMiwxLjMyLDEuMzIsMCwwLDEtLjI2LS41TDI3MCwyOTkuNjdsLS4wNi0uMjYtLjA2LjI2LTUuMTIsMTkuMTNhMS4zNCwxLjM0LDAsMCwxLS4yOC41MywxLjQsMS40LDAsMCwxLS41Ny4zMiw0LjY1LDQuNjUsMCwwLDEtMSwuMTZjLS40LDAtLjg5LjA1LTEuNDcuMDVhMTQuNjUsMTQuNjUsMCwwLDEtMS40OC0uMDYsNC40OCw0LjQ4LDAsMCwxLS45NC0uMTgsMS4wOCwxLjA4LDAsMCwxLS41NC0uMzIsMS4zNCwxLjM0LDAsMCwxLS4yNy0uNWwtNy43LTI1LjA1YTYuMzMsNi4zMywwLDAsMS0uMjEtLjczLDIuNTgsMi41OCwwLDAsMS0uMDYtLjUuNjguNjgsMCwwLDEsLjEyLS40Mi44My44MywwLDAsMSwuNC0uMjcsMi42LDIuNiwwLDAsMSwuNzQtLjEzYy4zMiwwLC43LDAsMS4xNSwwczEsMCwxLjMxLjA1YTMsMywwLDAsMSwuNzcuMTQuNzguNzgsMCwwLDEsLjM4LjMsMi40LDIuNCwwLDAsMSwuMi40NWw2LjM2LDIxLjc0LjA2LjI2LjA2LS4yNiw1LjgzLTIxLjc0YTEuMTYsMS4xNiwwLDAsMSwuMTktLjQ1Ljg1Ljg1LDAsMCwxLC4zOS0uMywyLjg2LDIuODYsMCwwLDEsLjcyLS4xNGMuMywwLC43LS4wNSwxLjE5LS4wNXMuODUsMCwxLjE1LjA1YTIuNjgsMi42OCwwLDAsMSwuNzIuMTQuNzYuNzYsMCwwLDEsLjM4LjI4LDEuMjgsMS4yOCwwLDAsMSwuMTguNDFsNi4zLDIxLjguMDYuMjYsMC0uMjYsNi4yNy0yMS43NGExLDEsMCwwLDEsLjE5LS40NS43OC43OCwwLDAsMSwuNDEtLjMsMywzLDAsMCwxLC43Ni0uMTRjLjMyLDAsLjczLS4wNSwxLjI0LS4wNXMuODUsMCwxLjEzLDBhMS44NSwxLjg1LDAsMCwxLC42Ny4xNS44OC44OCwwLDAsMSwuMzYuMjZBLjguOCwwLDAsMSwyOTAuMDcsMjkyLjUyWiIvPjxwYXRoIGQ9Ik0zMTguMDUsMzA0LjYyYTIsMiwwLDAsMS0uNTgsMS42MywyLDIsMCwwLDEtMS4zMS40OEgyOTguOGExNi41NSwxNi41NSwwLDAsMCwuNDQsNCw3LjY0LDcuNjQsMCwwLDAsMS40NywzLDYuNjYsNi42NiwwLDAsMCwyLjY4LDEuOTQsMTAuNjUsMTAuNjUsMCwwLDAsNCwuNjcsMTYuMTUsMTYuMTUsMCwwLDAsMy4zNi0uMzEsMTguNDMsMTguNDMsMCwwLDAsMi41NS0uNjljLjcxLS4yNSwxLjMtLjQ4LDEuNzYtLjY4YTIuOCwyLjgsMCwwLDEsMS4wNS0uMzEuNjYuNjYsMCwwLDEsLjM3LjEuNjUuNjUsMCwwLDEsLjI1LjMxLDIuMTksMi4xOSwwLDAsMSwuMTMuNTcsNy41Miw3LjUyLDAsMCwxLDAsLjg5LDYuMTIsNi4xMiwwLDAsMSwwLC42NmMwLC4xOSwwLC4zNS0uMDcuNWExLjI4LDEuMjgsMCwwLDEtLjE1LjQsMS4zLDEuMywwLDAsMS0uMjYuMzMsNCw0LDAsMCwxLS45NS41MywxNS4xOCwxNS4xOCwwLDAsMS0yLjA1LjcyYy0uODQuMjMtMS44MS40NC0yLjkyLjYzYTIxLjg3LDIxLjg3LDAsMCwxLTMuNTMuMjgsMTYuNDYsMTYuNDYsMCwwLDEtNS43LS45MSwxMC42MSwxMC42MSwwLDAsMS00LjExLTIuNywxMS40NCwxMS40NCwwLDAsMS0yLjUyLTQuNDgsMjAuODEsMjAuODEsMCwwLDEtLjg1LTYuMjcsMTkuNjgsMTkuNjgsMCwwLDEsLjg4LTYuMTEsMTMsMTMsMCwwLDEsMi41My00LjYsMTEuMjMsMTEuMjMsMCwwLDEsNC0yLjksMTMuMTgsMTMuMTgsMCwwLDEsNS4yNS0xLDEyLjUzLDEyLjUzLDAsMCwxLDUuMjgsMSwxMCwxMCwwLDAsMSwzLjU5LDIuNjgsMTAuNzQsMTAuNzQsMCwwLDEsMi4wNywzLjk1LDE3LjMzLDE3LjMzLDAsMCwxLC42Niw0Ljg1Wm0tNC44Ny0xLjQzYTguNzksOC43OSwwLDAsMC0xLjY5LTZBNi40NCw2LjQ0LDAsMCwwLDMwNi4yLDI5NWE3LjE3LDcuMTcsMCwwLDAtMy4xNi42Nyw2LjkxLDYuOTEsMCwwLDAtMi4yNywxLjc5LDguMSw4LjEsMCwwLDAtMS40MSwyLjU5LDEwLjY5LDEwLjY5LDAsMCwwLS41NiwzLjFaIi8+PHBhdGggZD0iTTM0MC44MSwyOTQuMzFxMCwuNjUsMCwxLjA4YTIuNTQsMi41NCwwLDAsMS0uMTIuNjkuODcuODcsMCwwLDEtLjIyLjM4LjQ3LjQ3LDAsMCwxLS4zNi4xMywxLjUzLDEuNTMsMCwwLDEtLjU3LS4xM2MtLjIzLS4wOS0uNDgtLjE3LS43Ni0uMjZzLS42MS0uMTctMS0uMjVhNS4xMSw1LjExLDAsMCwwLTEuMTQtLjEyLDMuODIsMy44MiwwLDAsMC0xLjQ0LjI5LDUuNzEsNS43MSwwLDAsMC0xLjQ3LDEsMTIuMywxMi4zLDAsMCwwLTEuNjMsMS43OWMtLjU3Ljc0LTEuMTksMS42NS0xLjg4LDIuNzJWMzE5YS42Mi42MiwwLDAsMS0uMTEuMzksMSwxLDAsMCwxLS4zOC4yOCwyLjY2LDIuNjYsMCwwLDEtLjc0LjE4LDkuNzIsOS43MiwwLDAsMS0xLjIuMDYsOS40Miw5LjQyLDAsMCwxLTEuMTctLjA2LDIuOTQsMi45NCwwLDAsMS0uNzUtLjE4Ljg0Ljg0LDAsMCwxLS4zOC0uMjguNjkuNjksMCwwLDEtLjEtLjM5VjI5Mi41OGEuNjcuNjcsMCwwLDEsLjQ0LS42OSwyLDIsMCwwLDEsLjY3LS4xNywxMS42OSwxMS42OSwwLDAsMSwyLjE2LDAsMS43NSwxLjc1LDAsMCwxLC42Ni4xNywxLjA3LDEuMDcsMCwwLDEsLjMzLjI5LjcyLjcyLDAsMCwxLC4xMS40djMuODRhMjAuMjMsMjAuMjMsMCwwLDEsMi0yLjU4LDEyLDEyLDAsMCwxLDEuOC0xLjU3LDUuNzEsNS43MSwwLDAsMSwxLjY5LS43OSw2LjQxLDYuNDEsMCwwLDEsMS42OC0uMjJjLjI2LDAsLjU0LDAsLjg3LjA1YTYuMzksNi4zOSwwLDAsMSwxLC4xNiw2LjgxLDYuODEsMCwwLDEsLjk1LjI2LDIuMzksMi4zOSwwLDAsMSwuNi4yOS42OS42OSwwLDAsMSwuMjMuMjgsMS43LDEuNywwLDAsMSwuMTEuMzQsMy43MywzLjczLDAsMCwxLC4wNi42QzM0MC44MSwyOTMuNSwzNDAuODEsMjkzLjg2LDM0MC44MSwyOTQuMzFaIi8+PHBhdGggZD0iTTM4NS40MywzMDguODFhMTEuNTUsMTEuNTUsMCwwLDEtLjQ1LDMuMywxMCwxMCwwLDAsMS0xLjI4LDIuNzEsOS40Myw5LjQzLDAsMCwxLTIsMi4xMSwxMS42OCwxMS42OCwwLDAsMS0yLjYsMS41MiwxNC43NiwxNC43NiwwLDAsMS0zLjExLjkyLDIwLjQ1LDIwLjQ1LDAsMCwxLTMuNzkuMzFoLTkuOTFhMi4xLDIuMSwwLDAsMS0xLjI3LS40NSwxLjksMS45LDAsMCwxLS42LTEuNlYyODMuODJhMS45LDEuOSwwLDAsMSwuNi0xLjYsMi4xLDIuMSwwLDAsMSwxLjI3LS40NWg4LjYyYTE5LjkzLDE5LjkzLDAsMCwxLDUuNTYuNjQsOS43OCw5Ljc4LDAsMCwxLDMuNjIsMS44OCw3LjY1LDcuNjUsMCwwLDEsMi4xOCwzLDEwLjU0LDEwLjU0LDAsMCwxLC43NCw0LDEwLjM2LDEwLjM2LDAsMCwxLS4zMiwyLjU4LDguODEsOC44MSwwLDAsMS0xLDIuMjcsOCw4LDAsMCwxLTEuNTgsMS44Niw4LjQzLDguNDMsMCwwLDEtMi4xOCwxLjM1LDksOSwwLDAsMSwyLjksMS4wNyw4LjczLDguNzMsMCwwLDEsMi4zNiwyLDkuMjMsOS4yMywwLDAsMSwxLjU5LDIuODJBMTAuMjcsMTAuMjcsMCwwLDEsMzg1LjQzLDMwOC44MVptLTcuNTktMTdhNy43NSw3Ljc1LDAsMCwwLS4zOC0yLjQ5LDQuNTcsNC41NywwLDAsMC0xLjItMS44OSw1LjIyLDUuMjIsMCwwLDAtMi4xMy0xLjE5LDEyLjE4LDEyLjE4LDAsMCwwLTMuNDgtLjQxaC01LjJ2MTIuMjhoNS43M2E3LjkzLDcuOTMsMCwwLDAsMy4xNS0uNTIsNS43NCw1Ljc0LDAsMCwwLDItMS4zNyw1LjQyLDUuNDIsMCwwLDAsMS4xNi0yQTgsOCwwLDAsMCwzNzcuODQsMjkxLjg1Wm0yLjI5LDE3LjI1YTcuNjIsNy42MiwwLDAsMC0uNTQtM0E1Ljc1LDUuNzUsMCwwLDAsMzc4LDMwNGE3LjA4LDcuMDgsMCwwLDAtMi42MS0xLjM0LDE0LjQ1LDE0LjQ1LDAsMCwwLTMuOTMtLjQ1aC02djEzLjM2aDcuMzFhMTAuMDUsMTAuMDUsMCwwLDAsMy0uNDEsNi43Miw2LjcyLDAsMCwwLDIuMjctMS4yMiw1LjU0LDUuNTQsMCwwLDAsMS41My0yQTYuNTgsNi41OCwwLDAsMCwzODAuMTMsMzA5LjFaIi8+PHBhdGggZD0iTTM5OC4xMiwzMTguOTJhLjczLjczLDAsMCwxLS4xMi40MS44MS44MSwwLDAsMS0uNDEuMjgsNiw2LDAsMCwxLS43OC4xNyw4LDgsMCwwLDEtMS4yMS4wOCw4LjM0LDguMzQsMCwwLDEtMS4yMS0uMDgsNS43OSw1Ljc5LDAsMCwxLS43OS0uMTcuNjYuNjYsMCwwLDEtLjUyLS42OVYyODIuNTNhLjY3LjY3LDAsMCwxLC4xMy0uNDEuODYuODYsMCwwLDEsLjQ0LS4yOCw0LjgxLDQuODEsMCwwLDEsLjc5LS4xNyw3LjYyLDcuNjIsMCwwLDEsMS4xNi0uMDgsOCw4LDAsMCwxLDEuMjEuMDgsNC42Nyw0LjY3LDAsMCwxLC43OC4xNy44MS44MSwwLDAsMSwuNDEuMjguNzMuNzMsMCwwLDEsLjEyLjQxWiIvPjwvc3ZnPg==;" parent="1" vertex="1">
          <mxGeometry x="604.79" y="450" width="145.21" height="96.81" as="geometry" />
        </mxCell>
        <mxCell id="BOHjWphCFEA1bgXW9XDe-21" value="" style="shape=image;aspect=fixed;image=data:image/png,iVBORw0KGgoAAAANSUhEUgAAAOEAAADhCAMAAAAJbSJIAAAAzFBMVEXu7u7////vU1Dg4OBktfZ1dXW73vvlOTXx8fFCpfXvTkvu9PTvh4XuSET4v7709PRsbGxcsvaQyvnA4fvU1NRubm5/f3+UlJRpt/bkKST0uLfExMTc3NyKiorlMi7kdHLg5+empqbOzs5Hp/Wbm5vh6fCy2vuKyPp9wPen1Pre5u+ZzfkwoPX28u5Wrvai0fnvZ2TR4fCxsbH51NPjHRf87u3vlZP639/uv77u4uJ1vfelpaX2sa/wcW/vnZv0urnvkY/vWlf4z87ibGrnyLC1AAAK2UlEQVR4nO2da3uaSheGSQAz0VpEBW3Udsd4RkM1xyZtunff//+fXpAZYE5EwAyM5fnSK4sR5nYtZtacrHJ26lKKrsCHqyKUXxWh/KoI5VdFKL/YhMbd8+ey6/cVrt+fHw4lfPj5/aIpgy6+fsF0f/HGgKQJf9ab9XNJVL/A9eX+8V3Ch1/NoqudSk2S8fwpmfCpLo3/oEjEr/d3SYQP57IB0ogX908JhL/kA2R48ZxP+FOudxCJdOKXRx7hRkYPnrPi9IFDKKkLGU584xB+l9SHFOHFBZvQuCi6plmVGKYxwjtZg5RKbS6+fGYSfmYQ1lkZANN4XmSuQBH+PpSw+evxE5WlNr9zjMUxUoRXBxI2nxuNxtN/eMWbV57xB9EqNd88o1JYwpCVsP7WUBSl8Qerd/3fvfEJN37yjeCHbITNJ6D4+o4Z/+yNAPOX52zf2PhUEGJmwh97mAZOeBcYv+GEQE7Cq33sEQH5FgQkVjIIXUX576NROMrc0pz/8NuPb4Rj7nwj4a263yY1HmV7D73B4tvzTyqXqz8+/6Razfq/z1fFTQ9k9+F5vcmYtDncKEo5CCVRRVgRll8VYUVYflWEFWH5VRGGhHVZ9ZXQPZvwzydp9Y3Q//4wCY2GtPqHVINNqEgrlRSoCGVTRVgRll8VYUVYflWEFWH5VRFWhOVXRVgRll8VoSjCf6ahNpuj3rl4wg1YbTud2tJpz/dqL5edrWc91v0LJtxstm5/UYOaue1A5s2iphzJlYUSgpWrmaY2Q4SeKyHkzXq9XmzBMRxZIOFmO/fwNNPpQEBn4fj/+IyLS09rrXYExsIIN6u5h+fpBQEuTM0MAtZjNC/3jOY2d6wWRAgUJ+DTzCWM0IVvMBd73pkzvwy0fpnmZCyGcLPVIGDoQjcwmC5sdMxLxDjLF6nFELqIL3RhrQ8NfehS9zJEXOR6VhGE00UIqL1AoDYymW3o1JfbEPF2lSNSxROClRYBmg7hwtCJNUe7jdyYo8ERTgi2WlwIhwGtxRE7mRFFExKACxSSMRsK3EUc8TIzomjCFQaI2pmZGTfCHGdpascIVMGEUw0n7BDtTLyt6fjGmBdXUhAuTIwQBmmnj1n7nTBMNe0mJLyVgHDj4oCoUZkR5lm8+QkR14tMcSqSEGxxEgKFA25Gr2ItC6JQH2qEUP6yIOyohQ2CN9baTMtNuCFcFfYLtT5hR50+7EOiV/ElgxMFEq5IQDiQqM1I38IxcQe2S/EuI30WLpBwrvVxafB9c6kLLkrcgr9vkC61MhNuax1SMBjfvTBrO1DtbYkJaznktJGc8hJOZzkIlyHhPLUThRF23udIUEjYXqZtToUR5nFhMP8GnZj2waIIt7kAa7PsYSqIcJMvSONh6qYMU0GE4MWkFXSHnTnj0jz4RpzQ4E+CB0o7xBBEuKLSlnDisDNnXIOE0VgkNk5MGaaCCMlRxV7BAJ/Ku33BfG4ZfR2xEUa6vEYM4WbJIpwFr9gL4xLMyWMZa+TDeboXURBhm0GBCMmRBZsw8wBDUJSyIhHNJLII+wmEKZsaQYQsCkTIukRfizU16cbBYginh1EcRrhON+kmiJDV0GgwC2BdM4NLnYqwIqwICyeUqKVhAWbuLcpIqLAys6yEN2XsD9k5TULWlpTTmOkeLYYwMS89LPMueV56+mOLzOPDaFdKyceHf8EY/5jzNCmXLgQRKh16cYK/bEFfqjlo6SL1lLAowpOfL/0L5ryPtm4xK+26xbHWnlLvqhFGmMuJ0fqhm/q54ghXx1gDTr98KJAQzKmdCu2Aw6UuwHV8tBksymf6ZV7Hp/diaO/uxSDzmXV6FwrdT0P56sD9NBFgln1fAgnpPVFwnMvdE0WlpFkeKpLw4H1t4X79/V+RCztZdu0L9SE5TDxob2IEmHJgWAShohDtKdpfig+CX9j7S7VsjxRMSCzRoElDYo8wtBJ7hLNsTCyAEJ9XxN84IkhdE59DzHh0RjQhwEf7qNWMt6bsvfqZT1yIJiQRY/4i/XocwCLOzEz78eMj2HZgX2jjsIOFqERnZnzFWlQUkmGXGDFHW9i1aY7ja4UQKrFZQpfI3Bhn19q5nlUM4WYbRip5/hCeolmiVGad4xXcqxhCT66GH6ns7EMXTiPOnPkazXArOY8CF0a4WbVNMxaWsXPAM7ft3MLxoLTngH1ttg5+ltuduzV4KN8/y71ev2TYmk+pQEKPcTrrk+fxHXQe/8bJc3I0UqGE+99UWC6o31SYm7ft7bF+HqNgQmX/uxgrz3ku+l0MZzbbrsDxfv2jeEKo8KdNlJP7bZOPVkVYEZZfFWFFWH5VhBVh+VURVoTlV0X4dxMyfxAPNwK28hVJwGHcJTshULtD6mG4EShdpobRDCGvSDdeZIh/WgUGk9JQVPIuKshOaOx0y5qQxoFn7MX/arFkjVRYRdC1OUXsLiqijrAilqXb1yqjQuq17T0dv4u+M7ISgkFL13VrgkfTeG/sAVh7S+fI0uHnVG4R3VLhTXW6jNWakBPFYNdi3as1yEpojII7qJhxsn+IFQSq8ZpQ/XHwfyPvEorsgiJjZhFL7+KIPc6dRpkJ7eArwgkD7BYknCRUf3Aw4YBXZBxDBDxA3T4uYS9O6MUNt/rwc0FYc4qM3yG01BDR4H5T1usHEirKiPNcq7WDNwQT5tuzf9Pg28wl1O2QkPs6W3bmtvQgQmXXg4IPhH9NYgE2mLCLDFBTCgltdKte+L1ZqEzoQmvUw7XL3h8eRgiMQGoQjPYZ/Dv+BkGTERRpGUQRSGhdowuGMkQv3QgVgs2e3lUMXOCjCcMogoQJyV9ISNgjwsgEYBsGG21FhR7ssu4vI6EnOx6mYBgAj5g3lpMQvnjWq4ERMm8vJyFMA6wJRmgzb5ybMJ7JF0QYBu01a/yRk9DqDmNSR4II8ShFseNlxOOwKgpqjXMSEoMHXXBLsyOzgrA6lt0bBJ7MS8jSh/cWKKdHvYUCWLWx7KEhF2HY46tUj4/aGrIig/w9vjBC3Z4g0VkbN3v1S0hDyJAdT/7GjIGy7o9fJSa0sMcAZWJZVFGvP8lLOMIkktAaE08x1MFrWBMbfqpFAabt8bFk/uzjenyKTycBldg4xWuOrmFzu8tLKCprI/haPZUGxO83CYr25CG0Qun26/DdSXg00/eR8zTHJZx0x1DdIWdGGP8ceqYshF6Pf9C0Pvm5Y88mChsBvw+IUtfJiRACEmOARgbZ57zLRfiqk+seqNWVdIxPluHOrnvjq+MSihoBk7fn8OnW6OCxBdV8JfnQEkzIGTv5I0SVduHBhEFg4JM/AKZKKlk6aNjCaRUmYeB/ar4MDPforUFCH8Hx4X6Z8mBCqtKq/zKTz1X9IUxrRy8N+6uNlkWTx4p0vRtarS7ju2wF4ZbwWcYakJf77BTWAPhgQqBO7N6Y+MaB8mqPBgxPGeORPUlOJcGwZ/fodXN/KXlk75I+GRTBNXodKMw5DD4h/f3j6w9JRiVI+5NruS/C++x7aQwwKMEJ/xSESSFWWjEAT4uQBZhAKB8iE5DX4wcXi65yOrEBkwllQuTwqarBJDyLChRd84PExfN09h6h9OIQJn4rUknhEJ6OE894hKfiRIVLeCpOPOMTngbiWRIhvcYhn4xEwhPwIglEEUre3DB4KIvMjEwahs1/Hzm768ssg43CITwhVYTyqyKUXxWh/KoI5dfpE/4fI/lviIJLKFsAAAAASUVORK5CYII=;" parent="1" vertex="1">
          <mxGeometry x="40" y="402.36" width="70" height="70" as="geometry" />
        </mxCell>
        <mxCell id="BOHjWphCFEA1bgXW9XDe-22" value="" style="image;aspect=fixed;html=1;points=[];align=center;fontSize=12;image=img/lib/azure2/databases/Data_Factory.svg;" parent="1" vertex="1">
          <mxGeometry x="369" y="560" width="68" height="68" as="geometry" />
        </mxCell>
        <mxCell id="BOHjWphCFEA1bgXW9XDe-28" value="" style="shape=mxgraph.arrows.u_turn_up_arrow;html=1;verticalLabelPosition=bottom;verticalAlign=top;strokeWidth=2;strokeColor=#050505;rotation=-180;" parent="1" vertex="1">
          <mxGeometry x="376.1" y="347.75" width="103.7" height="33.5" as="geometry" />
        </mxCell>
        <mxCell id="BOHjWphCFEA1bgXW9XDe-29" value="" style="shape=mxgraph.arrows.u_turn_up_arrow;html=1;verticalLabelPosition=bottom;verticalAlign=top;strokeWidth=2;strokeColor=#0f0f0f;rotation=-180;" parent="1" vertex="1">
          <mxGeometry x="490" y="347.75" width="103.7" height="33.5" as="geometry" />
        </mxCell>
        <mxCell id="BOHjWphCFEA1bgXW9XDe-35" value="" style="shape=image;aspect=fixed;image=data:image/png,iVBORw0KGgoAAAANSUhEUgAAAgAAAAIACAYAAAD0eNT6AAAACXBIWXMAAA7DAAAOwwHHb6hkAAAAGXRFWHRTb2Z0d2FyZQB3d3cuaW5rc2NhcGUub3Jnm+48GgAAIABJREFUeJzt3Xu8XXV95//3Wnuf+8k9JNwDCfeLF0BkRrRqrbV2tNo62qKl42+qdlRo+3MsKGpp59EZHWfsWKl1qnasF0SgjpeOIpWLwKjIXYGEhJBAQu7n7HPOvq/L9zt/HAIREnLO2Wvv717r+3o+Hj4eNcle+y0N5/ten7XWd0kAAAAAAAAAAAAAAAAAAAAAAAAAAAAAAAAAAAAAAAAAAAAAAAAAAAAAAAAAAAAAAAAAAAAAAAAAAAAAAAAAAAAAAAAAAAAAAAAAAAAAALgUuA5woG3bppeXBs2vyNrzFdhTpeAUSaskjUkadRwPAIC5aEi2Fqe2Mj09M1AqlTaVwvLNweiifzj16MX7XIfbz3kB2L179+rUDv6eQl0ka8+VFLrOBABAp6y12r5zj6y1kqQgCDU0WK4MDQ5+qzwy9rGTj12x3WU+ZwVg167Js02gyyW9VVLZVQ4AALrlyV17labpc349DEKNDA88PDQ08B9OWXv8bQ6i9b4AbJ+YODaIg/8eBPq3Lr4fAIBe2blnQnEcH/L3g0AaGR7ZMDg0+KbT1h7zSA+j9W7cbq0Nduyq/EmYBOuDQG8Viz8AoOCCw6x01kqNZvO0mWp1/UObtv6DtbZna2NPvmjHjpmVCpMvKdBv9uL7AADoB4ebADzbyPDQtrHB4ZeddNIx27oYS1IPJgA7duw7XaXkHhZ/AIB3nroBcK6arfZx0836o5u2bHtldwI9o6sFYOfOfeerFN4u6fhufg8AAEURx8ng1Ez9poc2PP7Wbn5P1wrArl2TZ9swvEHSim59BwAA/Wx+5//PSFMTNlrNax5+dMebMw10gK4UgF27pk40gW6UtKwbxwcAIA86udEuNSao16rXbdq695zMAh0g8wKwaZMdMoG5XtKRWR8bAIA8sfO8B+DZUpOWqtXKjzZs2Lsoo0hPy7wAjC6ufEpSV9oKAAB5Yhd8EeAZUZyMR7Z6cwZxfkmmBWDHnsmXB9J/yPKYAADkVacTgP2arfZ5D294ItP1NbMCYK0ty+pvxQY/AABImvdTgM9zHKtG3PqUtXYomyNmWAB27am8W9LZWR0PAIA8s9ZmNgGQpCROhh/e+MTnsjpeJgXAWjtgpQ9mcSwAAIogw7X/ac128+2bNmUzBcikAOzcU3mbpBOyOBYAAEWQ5dn/fkliBtr2iY9ncaxsJgCy78ziOAAAFEUWTwAcTBRFF2dxnI4LwJNPThwXKHhlBlkAACgMY7pTAOI4Xv7Qli0v6vQ4HReAsBy8IYvjAABQJNaY7hzXSrbd+X13HS/cVsGrOj0GAABFY2x3CoAkpcZc2OkxMjhzN6/o/BgAABRLty4BSFI7jo/t9BgdFYBdu6qrpGBVpyEAACga06VLAJJkUhNueOyxUzs5RkcFwIRxR18OAEBRdXMCIElRUnplJ5/v7BKA1ZqOPg8AQEGZbuwEdIDQ2o523+2oAARS5q8nBACgCLp5CWD2+OnyTj7f2SUACgAAAAeVmrSrxw/CYHEnn+9sAmCDwU4+DwBAUZm0u5cAbKrhTj7PBj4AAHRBtycAnaIAAADQBd1+CqBTFAAAADJmjOnK2wCzRAEAACBjaZefAMgCBQAAgIxRAAAA8FCa9PcNgBIFAACAzCUpBQAAAO+kKZcAAADwTsoEAAAA/yQ5uAeg7DoAHLJWalRlmw0F1sg2G8/8VnlQU6PHaWRYKpcDDfA3BQDmrN93AZQoAMWWxLI7npDdvU12325pYpc0sVd2ap9srSo1qrMl4CBsaVifPOqrv/Rr46OBxsekxYsCjY8FWr400MrlgVYsD7RymTQ8HPTifxUA9DVjbN/vAihRAIojTWW3Pyb72HqZxx6Rntwiu3eHlOF1qFrDqtaQdu09+F/spUsCHXNkqGOOko45MtSaY0MN8booAJ5JksR1hDmhAOTZk1tlHrpHdv19Mls2SFHbaZypaaup6VQPPSJJqUqhdPTqQCeuCbXuhFDr1gQqlZgSACi2OAfX/yUKQL4YI/Pog7L33CHz4F1SZZ/rRM8rNdK2nVbbdqa67aephgalk9eGOu2kUGecHGpkhDIAoHhSwwQAGbGPb5K582bZe++QnZlyHWfB2pH04AajBzcYlcJAp6wNdNbpoc46raTBAdfpACAbTADQEdtqyN59u8wd35d9YrPrOJlLjdX6R63WP2r03X9Jde7ZoS44p6SVK5gKAMi3PDwCKFEA+o6d2C1z+/dl7rhBatRdx+mJVsvq/96V6sd3p1q7JtSF55d06rpQAV0AQA5xEyDmxW5/TOaGa2Xu/4mUg7dIdYO10uatRpu3Gh15RKCXX1DSC88oqVRynQwA5sZam4ttgCUKgHN21zaZH1wn87MfSTYff2l6Yddeq+u+m+im21O95uUlveisEhMBAH0vjvNx9i9RANyZmlD67S/L/OxWFv7nMTllde13E93201S//qqyTjuJ3asB9K84J+N/iQLQe3Ekc8t3ZW74hmyr6TpNbuzaa/WP18ZatybUG369rNUrGQcA6D8UAByUfehepdd8VnZit+soubX5caPPfDHSy15S0qsvLLPTIIC+wiUA/LJGTem3viRzxw9cJymENJVu+2mqX6w3+u3XD+ikE5kGAOgPTADwNPvAT5V87SqpNu06SuFUpq3+4ZpI572wpNf/alnDQ64TAfCZtTY3ewBIFIDuiSOl3/pHmVu+4zpJoVkr3XV/qk1bjH73t8pacyw3CQJwI0/jf0nip2U3PLlVyX++lMW/h6amrT7/1Vg33Z4e6g3HANBVUY7G/xITgMzZu29T8tW/cf5mPh+lRvrh7Ym27zR62xvLGh7m3gAAvRNHsesI88IEICtpqvS6zyv5h0+y+Du24VGjq/5XrN37GAUA6J12TAHwT7ul9O//ipF/H5moWH3uHyM98iibLAHojYR7ADwzNankry+X+cVdrpPgWVpt6cvXx7rz3vzclQsgn5IklcnZDUjcA9ABu2ubks98TKrscx0Fh2CM9K0bEtXq0q++nLcKAeiOKGfjf4kJwILZnU8o/fQVLP458cPbE33rhoQnBAB0Rd6u/0tMABbEPr5RyWf+XGrUXEfBPNx5bypjpDf/Rpk3CwLIVJSzJwAkJgDzZrdvYfHPsbvuT/XN78VMAgBkxlpLASg6u/tJpVd9jMU/5+5+wOi7N+brbl0A/SuOE9kcnlVQAOZq7w6l/+NDsjNTrpMgAz+5J9VNt/N0AIDO5fH6v0QBmJv6jJLP/qXsdMV1EmToh7cnPCIIoGN5HP9LFIDDS2Oln/+E7O4nXSdBF3znxkTr2SwIQAfaUeQ6woJQAA4j/fKnZTb+3HUMdIkx0je+FWvX3vxdvwPgnjEmV68APhAF4HmkP/yWzF0/ch0DXdaOpK9cF6vVogQAmJ92O59n/xIF4JDMxp/LfPtLrmOgRyanrK79DhsFAZifVk6v/0sUgIOy0xWZL35SSvM51sHCrH/U6Ec/4f/nAOYur9f/JQrAc1kr87W/ka3yuJ+PbvxRoi1PcFMggMMzxirO6SOAEgXgOcwt35F58G7XMeCItdL1/5wox5f1APRIO4pyfdmQAnAAu+Nxpd/6R9cx4NjklNX/+Zf8tnoAvdHK8fhfogA8wxqlV/+tlPCDH9JdDxht3MylAACHlucnACQKwNPMLd+VfWy96xjoI//7hkQ5vsEXQBcZY3K7A+B+FABJdnKP0u9+1XUM9Jmpaaub7uClQQCeq9nK99m/RAGQJJnrvyi1W65joA/93ztT7d6X47t8AHRFu912HaFj3hcAs/HnMvf/2HUM9KnUiFcHA3iOVs6v/0u+FwBjZK7/gusU6HObtxo9wg2BAJ6SJKmSAmwU53UBMHfeLLt9i+sYyIHv3ZTI0AEASGq18j/+lzwuADZNZL7/DdcxkBN79lk98HD+Gz+AzjULcP1f8rkA/OSHsvt2uY6BHLnp9lQpUwDAa9ZatSgAOZbGSjn7xzxNVKzuf5ApAOCzVrud6+1/D+RlATB33y5V9rmOgRy69SdpYf7lBzB/zWYxzv4lXwvATd92HQE5tW/CauNjXAcAfFWU6/+ShwXAbnhAdvtjrmMgx+74GfsCAD6KolhpgW4E8q4ApLf+s+sIyLnNWy27AwIeahbk8b/9vCoAdmZKeuhu1zGQc9ZKd9/PzYCAbxrNYm0Z71cB+PEPZFPGt+jcvb8wSlOmAIAvkiRVnBRr/Si7DtAz1sr8+IeuU6AgGk2rhzdZnX1a4DoKCmYmSrRlOvszzT21piqNhY2ww1D6ndOPlc9/2+vNpusImfOmANitj7DxDzJ1/4NGZ5/m1RANPfDwREMfuy37LcrbzSlFrdoCPx3ozaceo1LobwUo0uN/+3nz08vcc4frCCiYRzYbFeyeIAAHkaSpojh2HSNzfhQAa2Xv45W/yFaaWm14lJsBgaIr2s1/+3lRAMzWjbKVva5joIB+sZ4bAYGiowDk2UP3uE6Agnp0S8rTAECBJUmiKCre+F/ypAAYnv1Hl0Sx9PiTFACgqOqNYp79Sz4UgPqM7BObXadAgfFuAKC4ivj4336FLwBmw88lyw9odM/mLUwAgCKKolhJUtwbfQtfAOxj611HQMHt3G3UjlynAJC1Ip/9SxQAoGOpkbbvZMoEFIm1xb37f79iF4CoLW3Pfkct4Nke304BAIqk1W4X6tW/B1PoAmCe3MrLf9ATT+50nQBAluqNhusIXVfoAqAnt7pOAE/s3lvsMwXAJ8YYNZvFv7Gn0AXA7tjqOgI8MTlluREQKIh6symr4j/dU+wCwAQAPWKttHtf8X9gAD6o1Yt9899+xS4Ae7kwi96ZrHAZAMi7KIoVF/DNfwdT3AKQxNJ0xXUKeKQyzQQAyLtao9jP/h+ouAVgYi87AKKnKhUKAJBnxlo1Cr75z4EKWwDs5B7XEeAZJgBAvtUbTRnjz7/HxS0AVcb/6K1a3XUCAJ2o1/05+5cKXABUr7pOAM/UW/6cOQBF045iRZ7c/LdfcQtAjQKA3mo0AtcRACxQrV78nf+erbgFoEEBQG+lqVXk1wkEUAipMV7d/LdfYQuAidiWDb0XJ1wGAPKmVm/IevivbmELQJBwKobe491TQN5YL8f/UoELgFIKAHovSV0nADAf9Uar8K/9PZSy6wDdYlN+EnciGJdOOX6f6xi5U9KwpBWuYwCYo6qnZ/9SgQtAEIQevMupO8LxUMveu1MfCF/gOkruzIzeoIQCAORCK4oUeXznbmEvAdhyYbtNV4XjoZZdMqFyuN51lJwadB0AwBxVq/6e/UsFLgBBecB1hNxh8e+cDYdcRwAwB3Gcqtny47W/h1LYAiAmAPPC4p8ViieQB9VazXUE5wpbAIKRMdcRciMcD7Xs/ZMs/hkw4VLXEQAcRpqmqjX8PvuXClwANLbYdYJceHrxLz3sOkoBhLIBBQDodzO1usRt4gUuAOMUgMMJx1j8s2TDpVJQch0DwPMw1nj31r9DKWwBCMYXuY7Q18KxUMsuYfHPkgmXuY4A4DCqtYaMj/v+HkRhC4CW8Cz2obD4d4cpHes6AoDnYaxVteb3o38HKmwBCFaudh2hL7H4d48pHe86AoDnUa3VZYyf2/4eTGELgMYWKxgecZ2ir7D4d5cZoAAA/cpYqxpn/7+kuAVAkpYzBdhvdvGvsPh3kSmtcR0BwCHU6nWlnP3/kkIXgOAorslKUjBa0rJLZlQuPeQ6SqGl5dNcRwBwENZa77f9PZhiF4BjT3QdwblgtKTll06rXPq56yjFFgwoHTjZdQoAB1GtNTj7P4hCFwAd7XcBYPHvnbR8siwvAgL6jjFWM9W66xh9qdAb5ofHnKjUdQhHnrnhj7F/LyTlM1xHAHAQM9W6jOXs/2CKPQFYvlJautx1ip6bveZfZfHvoWTwJa4jAHiW1BjV6pz9H0qxC4CkcO3priP01OzYf0bl0gOuo3glHbrAdQQAzzJ79s+uf4dS+AIQrPNnNMvi74YNFykp+1U0gX6XpCnP/R9Goe8BkKRg3ZmuI/REOFZ66jn/B11H8U4yeD4vAQL6zPRMTZY3/j2v4k8AjjtRweJiv6L1mef8WfxdiIdf7ToCgAPEcax6gzf+HU7hC4CCUMHp57hO0TXP3PDH2N+VeOjXXEcAcIDKdNV1hFwofgGQFJ51nusIXbF/8R8o3+86irdMaY3S8jrXMQA8pdlqq9WOXMfIBS8KQHD6OQpKxbrdIRwrafmlUyz+jkXDv+E6AoCnWGs1xdn/nHlRADQ6puD0F7lOkZlgtKSl76+qXPqF6yjei0bf5DoCgKfU603FSeI6Rm74UQAkBee+wnWETDD27x+mdIySwWJeXgLyxhqj6WrNdYxc8acAvPACaSDfe7UHY7N7+7P494do5E2SAtcxAEiaqvK63/nypwAMjyh4wUtdx1iwYLSkZe+v8mKfPhKNvtV1BACS4iRRrc6mP/PlTQGQpNKFr3UdYUEY+/efdPA8JQNnuY4BQFKlMiPLlr/z5lUBCE55oYLVx7iOMS8s/v2pNfb7riMAkNRottSKeOxvIbwqAAoChRe+znWKOeOaf38y4RJFI292HQPwHo/9dcavAiApeNlrFYyMuY5xWLPX/Gtc8+9D7bF3ygb9/3cIKLrpak1JmrqOkVv+FYDhUYUv6++tW2fH/jUNlO9zHQXPFgyoPfbvXacAvBcniWaq3PjXCe8KgCSFr36TVBpwHeOgZl/pO83i36eikbfIlI52HQPwXqUyI/G2v454WQC0dIXCl/6K6xTPsf/Mn7F/nwpKao7/sesUgPdqjSY3/mXAzwIgKXz970nl/pkCMPbvf9HI25QOnOw6BuA1Yww3/mXE2wIQLF+l8MJfdx1DEot/LgQDaiz6gOsUgPcqU1UZdvzLhLcFQJJKr/9dBcMjTjPMXvOfYfHvc+3Ri2XKJ7iOAXit1YpUbzZdxygMrwuAxpcoeI2757mD0ZKWXVpTufSAsww4PBMuVWPxZa5jAF4zxmpiatp1jELxuwBIKr32LdKq3t/VvX/xHyhx5t/vWov+TDZc4ToG4LWpmapSnvnPlPcFQOUBlX/7nT39yqe392Xx73tp+VS1xv4/1zEAr7WiiJf9dAEFQFLwggsUnvWS3nzX/jN/tvfNgVD1pZ+Sgv55WgTwjbVWk5UZ1zEKiQLwlNJF75dGx7v6HYz986U99k4lQxe4jgF4bWqmpiRJXMcoJArAfkuXq/Tb3Rv1Pv2oH4t/LpjS0Wos/qjrGIDX2u1ItXrddYzCogAcIPxXr1Fw5jmZH/eZsT+Lfz6Eqi+7SjZc5DoI4C1jrCYq07Ls9ts1FIADBYFKF/+pgsVLszskY//caY2/V/FQ/20VDfikMj3Dm/66jALwLMGipSpd/KdS0Pk/Ghb//EkGXqDmkitcxwC81my2VG+w4U+3UQAOIjjjHIW/1tkGQbOLf53FP0dMuET15V+U1aDrKIC30tRoYoq7/nuBAnAIpTderPDMcxf02WcW/3szToXuCdRY+jdKy2tdBwG8Njk1zV7/PUIBOJQwVOmdH5COmN8ugc+M/Vn886S56IOKRv6N6xiA12ZqDTVbbdcxvFF2HaCvjS5S+T0fUvrf/ky2dfjrUYz98yka+S01F3/QdYyDqkaJ/uf9OzM/7mS9ocf2TSz483/x6rN16gqekkB2oijWP+3boMhm+8x/ZBI9VNmx4M+/esmJumD0mAwT9Q8KwGEER5+g8D1XKL3qL6Q0PvSfY+yfS8nAOaov+1v16zCsmRjduGUy8+PGUUOtemXBn99Ta1MAkBljrfZVpvRAsk8tm+2d/0mSaEd94WV368jywhaA/vyp12fCU1+o0sV/LAXBQX+fxT+f0vI6VVdeIxu4fSU04LvK1IyShEf+eo0CMEfhS35Fpd/6g+f8ejBS1rJLGiz+OWNKR6u68jre8gc4Vm80eeTPEQrAPISv/R2VfvOip/97MFKePfMv3+MwFebLhitVXflPMqU1rqMAXkuSVBUe+XOGewDmKfzN35OMkbn1ehb/HJpd/L+ptHyK6yiA14y12jtRkWGvX2coAAsQvuHtGj6/qoGEHePyxJSOYvEH+kRlakYxb/lziksACxSt/iM1lnxc/CPMB1M6TtWV32HxB/pArdbgun8fYPXqQGv8Xaot+7QUMEjpZ8nACzRzxA3s8gf0gXYcqzJddR0DogB0LBq9SNUV35AJl7iOgoOIh16l6srvyJSOdB0F8F5qjPZNTMmK6/79gAKQgXjolaoe8T3uKu8zrfF3qbriG7IhG9YArllrNTExpZRX/PYNCkBG0vJpml51o5KhV7iO4j0bDKu27KrZezSCkus4ACRNzdTUiiLXMXAACkCGbLhSMyuuV3PRByQdfNdAdJcprVH1iO8rGv0911EAPKXeaKpaq7uOgWehAGQtKKm5+MOqrrhaNlzpOo1X2iNv1syqW5QMvMB1FABPieJYk1PTrmPgICgAXRIPv1ZTq+9QNPx611EKzwbjqi/9lOrLv8DNmEAfSVOjvRMVsddPf6IAdJENj1BtxVdUX/bX3IjWJfHQqzS9+ja1x577ngYA7lgr7ZusKE2N6yg4BApAD7RHL9bUqjsVjb7NdZTCMOFS1Zd+StWV1/H0BdCHJipTakeHfoU63KMA9IgtrVZt2WdVW/E1FqxOBCW1x/5A06vvfOqsn5stgX4zNVNVo9lyHQOHQQHosWj4dZo+8qdqLP0r2XCx6zi5kgxeqJkjblJ96ae4wRLoU/VGUzNV7vjPAwqAA1aDao39kaZW36XW+LtkNeQ6Ul9LBs5WbcXXNHPEt5UMnO06DoBDaLcjTVR4vW9eUAAcsuFKNZZ8XNNH3q32+B9SBJ4lLZ+u2vIvaWbVLYqGX+c6DoDnESeJ9k5MSWzzmxsUgD5gSkervuQTmj7yHjUXXSoTLnUdyalk8EJVV3xd06tvVzTyBnGdH+hvaWq0d19FxnLHf57wGrs+YkpHqbn4z9Va9EEN1q/WcP2LKiUbXcfqCRuMKB55k1pj/17J4ItdxwEwR8ZY7ZmoKGGP/9yhAPQhG4yqPf6Hao//ocrRzzRUv1qDzf+twNZcR8tcMvgitUffrmjkLdwUCeSMtVb7JiuKYx73yyMKQJ9LBs9XMni+Gkv/iwZa/6LB1rc10LxRgW24jrZgafl0RaNvUjTyZqXlda7jAFigycqMWm1e8JNXFICcsMGIopE3Khp5o4KlTQ20b9FA6xYNtG9WmGx1He952WBYydDLFA+/WvHQr7HoAwUwNT2jerPpOgY6QAHIIRuMKBp+/dPvGSglm1WOfqJy9DOV23eplGySyztxbbhIyeBLlAy+RPHgBUoHz5cNhp3lAZCt6ZmaZmr5nUJiFgWgANLyOqXldWqPvkOSFJophcmDKkfrVUrWq5Q8ojDZqjDdrSyLgQ3GZMprlJbXKi2frnTgDKUDZyotnSAFpcy+B0D/qNYamq4W734kH1EACsiES2UGL1QyeOEv/XqgSGGyXYHZoTCdUGAmFZpJydYV2IYCO3stL7Ctp8/YbbBYNhiUDZfJhMtkw+WypSOUlo5jNz7AM/VGU5VpNvopCgqAR6wGlZbXSlrrOgqAnGm1WpqcYvEvEgoAAOCw9lWm2ZKrYNgJEABwWJYdfguHAgAAgIcoAAAAeIgCAACAhygAAAB4iAIAAICHKAAAAHiIAgAAgIcoAAAAeIgCAACAhygAAAB4iAIAAICHKAAAAHiIAgAAgIcoAAAAeIgCAACAh8quAwDAwXxu5716uL4v8+Nu3fWEUrOwl9ufufxo/dezfjPjRIAbFAAAfSm2qSKbZn5cY6ysNQv6bLzAzwH9iEsAAAB4iAIAAICHKAAAAHiIAgAAgIcoAAAAeIgCAACAhygAAAB4iAIAAICHKAAAAHiIAgAAgIcoAAAAeIgCAACAhygAAAB4iAIAAH3ELPBVxcB8UQAAoE+02pEq0zOuY8ATZdcBAMB3VlZT0zVVa3UZY1zHgScoAADgUJwk2jc5rTiOXUeBZwpVAGZq0qNbrCamAzUaVlxJw4FGhqQliwKddIK0crnrNIBUrdc1NVUTP63gQiEKQLMl3fJj6cGNVrPTM/5lwqFY3fpTad0a6TUvk5YtDVwHgoeSNNXk5LRaUeQ6CjyW+wIwNW11zXelKe6bwTxsflzavkv6nddJxx/jOg18Uq83VJmpcrc/nMv1UwDtSLr2eyz+WJh2W/rmD6ympvlBjO5LU6O9E1OamJph8UdfyHUB+Mm9VpMV1ymQZ62W9MM7XKdA0dUbTe3cs0/NVst1FOBpub0EkKbSvQ+6ToEiePRxabIiLV/mOgmKJklTTVam1WpzrR/9J7cFYNtOiftnkJXNT1AAkB1rpVqjrqnpmqxl3I/+lNsCwHV/ZGmq6joBiiKOY01WZtTmuX70udwWADbLQpZMaiXxSCAWzlqr6ersbn6c9CMPclsAFo+7ToAiWcTfJ3Sg2WprcmpGaZq6jgLMWW4LwLFHSWHIJADZOOE4zv4xf3GSaGq6qmar7ToKMG+5fQxweEg642R+aKNzq48IdNQRrlMgT6y1mp6padeefSz+yK3cFgBJesVLZ4sAsFClkvRrF0oBXRJz1Gy1tXP3Pk1Xa1zrR67lugAsHpfe/DppYMB1EuRRGEqvfUWgY49ynQR5kaSp9k5UlHCtHwWQ6wIgSWuOCfT7bw60mhEu5mHJIuktrw/0wtNdJ0GeWLbwRYHk9ibAA61aKf27twTa/LjVI1sCTVasGk0xnsMvGRmWli6efRPgaScFKpdcJwIAdwpRAKTZa7gnnTD7rnee5wYA4Pnl/hIAAACYPwoAAAAeogAAAOAhCgAAAB6iAAAA4CEKAAAAHqIAAADgIQoAAAAeogAAAOAhCgAAAB4qzFbAkmSM9MQOaWLSqtEMlPIygI6MjgRaPCadcKw0POw6DQAgS4UKajHDAAAPnklEQVQoAGkq3fWA9NP7rFrt/b/K4t+52X+GpZJ05inSK84PND7mOBIAIBO5LwDNlvRP37favtN1kuJKU+nn66XHHrf67dcHOnqV60QAgE7l+h4AY6Rv3sDi3yu1hnTdP1tNzbhOAgDoVK4LwN0/l7btcJ3CL82W9IPbuLyC7klTo5lqXe125DoKUGi5vQRgjHTn/SxELmx5Qtq1x+rIVYHrKCgMq2YrUr3RVLPVlrVWhpt4ga7KbQHYsVuqN1yn8NemrYGO5F4AdCiKY9XrLdWbTRljXMcBvJLbAjA55TqB3yamrCQmAJi/NE3VaLVUr7cUxbHrOIC3clsAkoTxoEtJ4jqBH5YPl/XXv3pS5settSPtqjUX/PkXHLl0Xn/eGKNGs616o6F2NLdF/1UDx+il5ez/oj2+esWCHxI+anA80ywHs27RgP7jWcsyP26lNabp9sIKVxDM/qfb/u3QOhmb7SQoHTTaedSRC/78uqHlGabpL7ktAGOjgXjW352xEdcJ/FAOQ525shubL4xJyn6ROVBqjFqtthrNllrtSHae1/RXh935S3bi+KKuHDcr4+VQpy0d7MKRu3HMbB0XdmejkbXlJV05bt7ltgAce9RsI+U+ITeOO9p1AvSj/eP9RqM15zN9AG7ktgCMjUprj5c2P+46iX+Gh6WTT+D6P2ZFcaxms61mu62IRR/IjdwWAEn6lQsCbd1ulaauk/jlZedJQ0OuU8AVa61a7UjNVkvNVltpyt37QB7lugCsWiH9xiul/3MzlwJ65fSTpPPO5uzfN1EUq9WO1GpHarcjWe6/AXIv1wVAks46NdDwsPT9m6V6kx9K3RKG0ktfHOjlL+nN3cBwK03Tp87y22q1I57RBwoo9wVAkk5aI7377dL9Dwfa+JjVREUHvBUQCzVQlpYskk48LtCLz5SWd/emcTiUpkbtKFKr3Va7HSvmOU+g8ApRACRpaFB66Yukl76I01Pg+VhrlSSJWlGsdjtSO4q4jg94qDAFAMDBpalRFMeKolhRHKsVxbKM9AHvUQCAAknSVHEUK4qT2UU/jjm7B3BQFAAgh4wxipNUcZw89Z9Y7SThzB7AnFEAgD5lrVWamtmz+iRRkqSK49kb9DirB9ApCgDg0P4FPk1TpalRnCZKk1RxMvtr890/HwDmigIAZMxaK5MaJdbIpEYmTZUaq9SY2YXeGKVJqiQ14oVWAFzpqADEcbLIilEk8sva5+5pZ619+sx79v+WjLWStbOvKrWSsUbGzP45Y4xSY2SNnf01FnUAOdBRAZiuVs9ttFpZZQEAAD0Sug4AAAB6jwIAAICHKAAAAHiIAgAAgIcoAAAAeIgCAACAhygAAAB4iAIAAICHKAAAAHiIAgAAgIcoAAAAeIgCAACAhygAAAB4iAIAAICHKAAAAHiIAgAAgIcoAAAAeIgCAACAhygAAAB4iAIAAICHKAAAAHiIAgAAgIfKnXz4hu/deGucxOdlFQYAAMzNQHng1k4+31EBiJJIslrSyTEAAMD8RUnU0ee5BAAAgIcoAAAAeIgCAACAhygAAAB4iAIAAICHKAAAAHiIAgAAgIcoAAAAeIgCAACAhygAAAB4iAIAAICHKAAAAHiIAgAAgIcoAAAAeIgCAACAhygAAAB4iAIAAICHKAAAAHiIAgAAgIcoAAAAeIgCAACAh8quAwDotUCLlyzS8PCwJKndaml6uirJuo0FoKcoAIAnyuWy1py4Rsccd4wGBwZ/6ffiKNK2bdv1+JYnlKaJo4QAeokCAHhgdGxMLz7nRRoZHTno7w8MDmrturU68sgjdf9996tRb/Q4IYBe4x4AoOCGhoZ0znnnHHLxP9Do2KjOfcm5Gnrq8gCA4qIAAAV32hmnaXh4aM5/fmhoSKeedkoXEwHoBxQAoMAWLRrXEauOmPfnVq1epfHx8S4kAtAvKABAgR2xetWCP7vqyIV/FkD/owAABdbJWfzYGBMAoMgoAECBlcsLf9BnYICHhIAiowAABRZF0cI/2174ZwH0PwoAUGDT09ML/+zUwj8LoP9RAIAC27N7r6wx8/6cMUZ79uzpQiIA/aKjAhBYy+bhQB9rt1p64vFt8/7cE48/oXa73YVEALLS6RrcUQGwVs1OPg+g+zY/ullTlak5//mpyYo2b9rcxUQAsmAUdrRnd2cTgEC1Tj4PoPuMMbrvnvu0e9fhR/q7du7SfffeJ4Z7QA5YzXTy8Y6e87EKK7xCFOh/aZrqFw/8XE9uX67jjj9OK1YuVxiWnvo9o4l9E9q+bZsmJyYdJwUwV0GguY/2DqKjAmBkH+UuQiA/Jicmn17khwZnXwnc7uBRQQDuBCbd1MnnO1q/R8rtjWIEAORSO4pY/IH8MnE88mgnB+ioAHzwgx+sS9rYyTEAAMB8BY9ceeV73N0EOMve0vkxAADAXAXW3tzpMTIoAGHHIQAAwNwZyX0BGCq3viep2ulxAADAnMyk0dANnR6k4wIwex9A8M1OjwMAAObk+k6v/0tZvQsgMH+fyXEAAMDzC/X5bA6TgY9c/sc/ttKPsjgWAAA4pB9+5LJLf5rFgTLcxyf4y+yOBQAAniMw/ymrQ2VWAD76oUtuDgJdn9XxAADAM6wNrvnI5X9yW1bHy3Qn3zjQn4onAgAAyNpMWtIHsjxgpgXgyssu3S4F78rymAAA+C4IgvddedklO7I8Zubv8vnIhy75hqQvZH1cAAB8FFj9zysuv+SrWR+3Ky/zS9qT75PVD7pxbAAAPHLzonH9cTcOHHTjoJL0iU98YlFiRm6x0rnd+g4AAArL6u6BUvPVl112WVfurevKBECSLrvssmrcLr1S1v5Lt74DAICCurUcDr2mW4u/1MUCIElXXvm+WhItfqOkb3TzewAAKApr7dWLx/S6yy9/z3Q3v6drlwCe7a8+/jcXW6u/kzTaq+8EACBHWjYILv/o5Zd8uhdf1rMCIEl/+fGrzgxt+lkpeEUvvxcAgD53a2j1vg9/+NKHe/WFPS0AkmStDf7zJ656u7X2Y5JO7vX3AwDQRzZKuvKKyy+5JggC28sv7nkB2O/aa68tbXps99uste+T9K9d5QAAoMeslX4cBvaquFW59sorrzQuQjgrAAf6T//10yeHafi7Vva1kl4qacB1JgAAMhRZ6c4g0I021Nc/+meXbnYdqC8KwIE++clPjrXTwRdbE54ahOYUSStkg8WydqmCoO/yIt+sMYNpmi5znQO9VyoPTASBEtc5UDDWWgXBlAI7I2nCmnBjSdoQRYP3XXnlexqu4x2IBRVeu/iiP/qMDfR+1znQe9bqyq9e/bm/cJ0DcIUCAG+94x3vPiqw4WZJI66zoPcCaTqxwYlXX/13FddZABe6uhEQ0M8CG1whFn9vWWlJObRd2WMdyAMmAPASZ/+QZqcAA1G89ovXfXHSdRag15gAwE82/IhY/L1npSXtgYE/cZ0DcIEJALzzzt9973FJaDYp0JDrLOgLM4NRfCJTAPiGCQC8k5bNh1j8cYDF0WD5T12HAHqNCQC8wtk/DqFWjgbW/q/rPrPXdRCgV5gAwCuc/eMQxpPBmCcC4BUmAPAGZ/84DKYA8AoTAHgjKdkPs/jjeYwngwn3AsAbTADgBc7+MTdBvRyVT2QKAB8wAYAX4pK5gsUfh2fHksH4/3edAugFJgAovIsvfvfxNg03SRp0nQV5ENQV2rVf+crn9rhOAnQTEwAUnknDD4vFH3Nmx2T0AdcpgG5jAoBC4+wfC8MUAMXHBACFZk1whVj8MW92zBr7H12nALqJCQAKi7N/dCaoJyZe9/Wvf2G36yRANzABQGHZNPyIWPyxYHZsoDTAFACFxQQAhcTZPzLSjNPySddcc9UO10GArDEBQCFx9o+MjJTDlCcCUEhMAFA4F130vjWlIN0oCgCy0YrT8jqmACgaJgAonLJSzv6RpeGBcsK9ACgcJgAoFM7+0SWtoKSTvvzlzz3pOgiQFSYAKJRSaD4qFn9kb9im7AuAYmECgMLg7B9dxhQAhcIEAIXB2T+6bNim+jPXIYCsMAFAIXD2jx5hCoDCYAKAQigF6cfE4o/uG7ZpcJnrEEAWmAAg9zj7R09ZtU2QnPS1r31hu+soQCeYACD3ykr+XCz+6JVAQyVbZgqA3GMCgFz7g7e9e50phxsklV1ngUeYAqAAmAAg12wpuEIs/ui1QEOByh9yHQPoBBMA5BZn/3AsKqU69UvXfG6r6yDAQjABQG6ZcvgRsfjDnUFTZl8A5BcTAOQSZ//oE3Ep1SlMAZBHTACQS2k5/KhY/OHeQFLS5a5DAAvBBAC5w9k/+kysMDn1K1/5whbXQYD5YAKA3OHsH31mQLbEFAC5wwQAufKOd7z3pMCa9aIAoL8wBUDuMAFArgTGcvaPfjQgw74AyBcmAMgNzv7R5+LUBqddffXfPeY6CDAXTACQG4E1HxOLP/rXQCnUh12HAOaKCQBygbN/5ARTAOQGEwDkg03/XCz+6H8DpcBe4ToEMBdMAND3LrroPSeXguBhUQCQD2lQSs/48pc/v9F1EOD5MAFA3wsDce0feVJSErIvAPoeEwD0Nc7+kVNMAdD3mACgr5XCgGv/yKOSSUs8EYC+xgQAfYuzf+RcaoPgzK9+9e8ecR0EOBgmAOhbpSC4Uiz+yK9SYNgXAP2LCQD60lNn/+sllVxnATrAFAB9iwkA+tJTZ/8s/si7kqz5iOsQwMEwAUDfufjid51i09LDogCgGNKSMWd96et/v8F1EOBATADQf9LSlWLxR3GU0lLIFAB9hwkA+srv//57T5cxD4pyimJJFYZnf+Urn13vOgiwHz9k0V9m3/jH30sUTUmGewHQX5gAeOzaa68tVSqVvlls77lnw2mtRut+UQBQTGZoZOjc8847/SHXQfZbtmyZeetb35q6zgE3eMbaYxs377pD0gWuc+x3/Iknuo4AdFMo6b69k23XOZ62d3LnP0t6g+sccIMzLQAAPEQBAADAQxQAAAA8RAEAAMBDFAAAADxEAQAAwEMUAAAAPEQBAADAQxQAAAA8RAEAAMBDFAAAADxEAQAAwEMUAAAAPEQBAADAQxQAAAA8RAEAAMBDFAAAADxEAQAAwEMUAAAAPEQBAADAQxQAAAA8RAEAAMBDFAAAADxEAQAAwEMUAAAAPEQBAADAQxQAAAA8RAEAAMBDFAAAADxEAQAAwENl1wHgTtKefNkZZ5wRuM4BwI2HH37Yus4AAAAAAAAAAAAAAAAAAAAAAAAAAAAAAAAAAAAAAAAAAAAAAAAAAAAAAAAAAAAAAAAAAAAAAAAAAAAAAAAAAAAAAAAAAAAAAAAAAAAgSfp/KkC17aiQk1cAAAAASUVORK5CYII=;" parent="1" vertex="1">
          <mxGeometry x="757" y="390.25" width="132" height="132" as="geometry" />
        </mxCell>
        <mxCell id="BOHjWphCFEA1bgXW9XDe-36" value="" style="curved=1;endArrow=classic;html=1;rounded=0;strokeWidth=1;entryX=0.397;entryY=1.045;entryDx=0;entryDy=0;entryPerimeter=0;" parent="1" target="BOHjWphCFEA1bgXW9XDe-39" edge="1">
          <mxGeometry width="50" height="50" relative="1" as="geometry">
            <mxPoint x="160" y="500" as="sourcePoint" />
            <mxPoint x="560" y="500" as="targetPoint" />
            <Array as="points">
              <mxPoint x="230" y="520" />
              <mxPoint x="320" y="530" />
              <mxPoint x="470" y="530" />
            </Array>
          </mxGeometry>
        </mxCell>
        <mxCell id="BOHjWphCFEA1bgXW9XDe-37" value="Raw Layer" style="text;html=1;align=center;verticalAlign=middle;resizable=0;points=[];autosize=1;strokeColor=none;fillColor=none;" parent="1" vertex="1">
          <mxGeometry x="330" y="468" width="80" height="30" as="geometry" />
        </mxCell>
        <mxCell id="BOHjWphCFEA1bgXW9XDe-38" value="Ingestion Layer" style="text;html=1;align=center;verticalAlign=middle;resizable=0;points=[];autosize=1;strokeColor=none;fillColor=none;" parent="1" vertex="1">
          <mxGeometry x="426" y="469.25" width="110" height="30" as="geometry" />
        </mxCell>
        <mxCell id="BOHjWphCFEA1bgXW9XDe-39" value="Presentation Layer" style="text;html=1;align=center;verticalAlign=middle;resizable=0;points=[];autosize=1;strokeColor=none;fillColor=none;" parent="1" vertex="1">
          <mxGeometry x="530" y="469.25" width="120" height="30" as="geometry" />
        </mxCell>
        <mxCell id="BOHjWphCFEA1bgXW9XDe-40" value="&lt;b&gt;Orchestrate&lt;/b&gt;" style="text;html=1;align=center;verticalAlign=middle;resizable=0;points=[];autosize=1;strokeColor=none;fillColor=none;" parent="1" vertex="1">
          <mxGeometry x="358" y="530" width="90" height="30" as="geometry" />
        </mxCell>
        <mxCell id="BOHjWphCFEA1bgXW9XDe-41" value="&lt;b&gt;Ingest&lt;br&gt;&lt;/b&gt;" style="text;html=1;align=center;verticalAlign=middle;resizable=0;points=[];autosize=1;strokeColor=none;fillColor=none;" parent="1" vertex="1">
          <mxGeometry x="393.7" y="243" width="60" height="30" as="geometry" />
        </mxCell>
        <mxCell id="BOHjWphCFEA1bgXW9XDe-42" value="&lt;b&gt;Transform&lt;/b&gt;" style="text;html=1;align=center;verticalAlign=middle;resizable=0;points=[];autosize=1;strokeColor=none;fillColor=none;" parent="1" vertex="1">
          <mxGeometry x="491.40999999999997" y="243" width="80" height="30" as="geometry" />
        </mxCell>
        <mxCell id="BOHjWphCFEA1bgXW9XDe-43" value="&lt;b&gt;Store metadata&lt;/b&gt;" style="text;html=1;align=center;verticalAlign=middle;resizable=0;points=[];autosize=1;strokeColor=none;fillColor=none;" parent="1" vertex="1">
          <mxGeometry x="622.71" y="320" width="110" height="30" as="geometry" />
        </mxCell>
        <mxCell id="BOHjWphCFEA1bgXW9XDe-44" value="Data source" style="text;html=1;align=center;verticalAlign=middle;resizable=0;points=[];autosize=1;strokeColor=none;fillColor=none;" parent="1" vertex="1">
          <mxGeometry x="30" y="468" width="90" height="30" as="geometry" />
        </mxCell>
        <mxCell id="BOHjWphCFEA1bgXW9XDe-45" value="&lt;b&gt;Copy/ Extract&lt;/b&gt;" style="text;html=1;align=center;verticalAlign=middle;resizable=0;points=[];autosize=1;strokeColor=none;fillColor=none;" parent="1" vertex="1">
          <mxGeometry x="158" y="365" width="100" height="30" as="geometry" />
        </mxCell>
      </root>
    </mxGraphModel>
  </diagram>
  <diagram id="1C7iYH2R1Yk7wxVAr11G" name="Page-2">
    <mxGraphModel dx="1050" dy="669" grid="1" gridSize="10" guides="1" tooltips="1" connect="1" arrows="1" fold="1" page="1" pageScale="1" pageWidth="850" pageHeight="1100" math="0" shadow="0">
      <root>
        <mxCell id="0" />
        <mxCell id="1" parent="0" />
        <mxCell id="eUM8KXNQpFHISAB7NTUv-1" value="" style="image;aspect=fixed;html=1;points=[];align=center;fontSize=12;image=img/lib/azure2/identity/Azure_Active_Directory.svg;" vertex="1" parent="1">
          <mxGeometry x="273.12" y="684" width="56.88" height="52" as="geometry" />
        </mxCell>
        <mxCell id="eUM8KXNQpFHISAB7NTUv-2" value="" style="image;aspect=fixed;html=1;points=[];align=center;fontSize=12;image=img/lib/azure2/security/Key_Vaults.svg;" vertex="1" parent="1">
          <mxGeometry x="478.7" y="685" width="50" height="50" as="geometry" />
        </mxCell>
        <mxCell id="eUM8KXNQpFHISAB7NTUv-3" value="" style="verticalLabelPosition=bottom;html=1;verticalAlign=top;align=center;strokeColor=none;fillColor=#00BEF2;shape=mxgraph.azure.storage;pointerEvents=1;" vertex="1" parent="1">
          <mxGeometry x="372" y="690" width="53" height="40" as="geometry" />
        </mxCell>
      </root>
    </mxGraphModel>
  </diagram>
</mxfile>
